<svg width="170" height="204" viewBox="0 0 170 204" fill="none" xmlns="http://www.w3.org/2000/svg">
<path d="M19.7826 170.822L9.8943 195.145C8.53041 198.504 6.53507 200.184 3.9083 200.184C2.89801 200.184 2.03926 199.843 1.33205 199.161C0.599584 198.504 0.233351 197.709 0.233351 196.774C0.233351 195.991 0.549069 194.804 1.1805 193.213L19.4416 148.204C20.3761 145.931 21.9926 144.794 24.291 144.794C25.8822 144.794 27.1451 145.552 28.0796 147.068C29.8476 145.199 32.0072 144.264 34.5581 144.264C37.2102 144.264 39.3444 145.274 40.9609 147.295C42.6026 149.29 43.4235 151.93 43.4235 155.213C43.4235 161.426 41.4913 166.491 37.6269 170.405C36.3641 171.694 35.0633 172.578 33.7247 173.058C32.386 173.537 30.517 173.777 28.1175 173.777C25.5413 173.777 23.7606 173.601 22.7756 173.247C21.8158 172.893 20.8181 172.085 19.7826 170.822ZM22.8892 163.093C23.5207 164.205 24.1142 164.925 24.6699 165.253C25.2508 165.581 26.1601 165.745 27.3977 165.745C29.191 165.745 30.5927 165.076 31.603 163.738C33.6489 161.035 34.6718 158.257 34.6718 155.403C34.6718 152.953 33.51 151.728 31.1863 151.728C28.6353 151.728 26.8041 153.205 25.6928 156.16C25.5665 156.489 25.4655 156.766 25.3897 156.994L22.8892 163.093ZM55.4685 165.518H59.4466C62.6543 165.518 64.2581 166.642 64.2581 168.89C64.2581 170.431 63.6898 171.63 62.5532 172.489C61.4419 173.348 59.876 173.777 57.8554 173.777H51.0359C49.1668 173.777 47.6893 173.335 46.6032 172.451C45.5171 171.567 44.9741 170.38 44.9741 168.89C44.9741 168.107 45.3403 166.806 46.0728 164.988L61.3788 127.329L61.7955 126.306C62.9574 123.477 64.8138 122.063 67.3648 122.063C68.4256 122.063 69.3222 122.416 70.0547 123.124C70.8124 123.831 71.1913 124.677 71.1913 125.662C71.1913 126.42 71.0018 127.278 70.623 128.238L70.2062 129.261L55.4685 165.518ZM76.3411 165.518H80.6222C83.8046 165.518 85.3958 166.642 85.3958 168.89C85.3958 170.431 84.8275 171.63 83.691 172.489C82.5796 173.348 81.0137 173.777 78.9931 173.777H72.9692C70.7465 173.777 68.9912 173.323 67.703 172.413C66.4402 171.504 65.8087 170.267 65.8087 168.701C65.8087 167.867 66.0739 166.806 66.6043 165.518L72.8555 150.136L73.2723 149.076C74.4341 146.222 76.3032 144.794 78.8794 144.794C79.9402 144.794 80.8495 145.148 81.6072 145.855C82.3902 146.563 82.7817 147.409 82.7817 148.394C82.7817 149.202 82.4407 150.44 81.7588 152.106L76.3411 165.518ZM81.342 132.709C82.8069 132.709 84.0446 133.227 85.0549 134.262C86.0904 135.272 86.6082 136.51 86.6082 137.975C86.6082 139.44 86.0904 140.69 85.0549 141.726C84.0446 142.736 82.8069 143.241 81.342 143.241C79.8771 143.241 78.6268 142.736 77.5913 141.726C76.581 140.69 76.0759 139.44 76.0759 137.975C76.0759 136.51 76.581 135.272 77.5913 134.262C78.6268 133.227 79.8771 132.709 81.342 132.709ZM99.3731 155.137L98.6532 156.88C97.5419 159.381 95.9633 160.631 93.9175 160.631C92.8819 160.631 91.9474 160.277 91.1139 159.57C90.3057 158.838 89.9015 158.004 89.9015 157.07C89.9015 156.186 90.2678 155.011 91.0002 153.546L96.0391 143.317C97.2767 140.867 98.8174 139.642 100.661 139.642C101.646 139.642 102.492 139.97 103.2 140.627C103.907 141.258 104.26 142.016 104.26 142.9C104.26 143.127 104.185 143.62 104.033 144.378C103.932 144.933 103.882 145.426 103.882 145.855C103.882 147.447 104.475 149.076 105.662 150.743L107.822 153.736C110.019 156.792 111.118 159.747 111.118 162.601C111.118 165.783 109.931 168.448 107.556 170.595C105.182 172.717 102.227 173.777 98.6911 173.777H90.7729C87.5652 173.777 85.9614 172.666 85.9614 170.443C85.9614 168.903 86.5297 167.703 87.6663 166.844C88.8029 165.96 90.3688 165.518 92.3641 165.518H96.7589C100.27 165.518 102.025 164.243 102.025 161.692C102.025 160.757 101.697 159.658 101.04 158.396L99.3731 155.137ZM132.71 144.794H133.885C137.092 144.794 138.696 145.918 138.696 148.166C138.696 149.707 138.128 150.907 136.991 151.766C135.855 152.624 134.289 153.054 132.293 153.054H129.528L124.451 165.518H128.694C131.902 165.518 133.506 166.642 133.506 168.89C133.506 170.431 132.937 171.63 131.801 172.489C130.69 173.348 129.124 173.777 127.103 173.777H120.321C118.402 173.777 116.874 173.335 115.737 172.451C114.626 171.567 114.07 170.368 114.07 168.852C114.07 167.918 114.297 166.882 114.752 165.745L115.472 164.079L119.942 153.054H119.374C116.545 153.054 115.131 151.955 115.131 149.758C115.131 148.192 115.687 146.979 116.798 146.12C117.935 145.236 119.513 144.794 121.534 144.794H123.276L125.284 139.831L125.701 138.808C126.888 136.005 128.757 134.603 131.308 134.603C132.344 134.603 133.228 134.957 133.96 135.664C134.718 136.346 135.097 137.179 135.097 138.164C135.097 139.124 134.769 140.337 134.112 141.801L132.71 144.794ZM158.621 175.331H163.016C166.224 175.331 167.828 176.455 167.828 178.703C167.828 180.243 167.259 181.443 166.123 182.302C165.012 183.16 163.446 183.59 161.425 183.59H155.287C154.555 185.762 153.229 188.641 151.309 192.228C147.975 198.542 143.126 201.699 136.761 201.699C132.897 201.699 129.651 200.487 127.024 198.062C124.398 195.638 123.084 192.632 123.084 189.045C123.084 186.545 123.804 184.209 125.244 182.037C126.658 179.89 128.527 178.273 130.851 177.187C133.528 175.949 137.481 175.331 142.709 175.331H148.885L149.983 172.603C148.114 173.386 146.397 173.777 144.831 173.777C142.128 173.777 139.931 173.095 138.239 171.731C136.572 170.342 135.738 168.549 135.738 166.352C135.738 165.013 136.281 163.005 137.367 160.328L141.497 150.136L141.914 149.076C143.126 146.222 145.008 144.794 147.559 144.794C148.67 144.794 149.592 145.148 150.324 145.855C151.082 146.563 151.461 147.459 151.461 148.545C151.461 149.278 151.133 150.465 150.476 152.106L146.763 161.161C146.182 162.626 145.879 163.573 145.854 164.003C145.778 165.24 146.561 165.859 148.203 165.859C149.365 165.859 150.552 165.518 151.764 164.836C152.976 164.154 153.747 163.384 154.075 162.525L159.152 150.136L159.531 149.076C160.718 146.222 162.599 144.794 165.176 144.794C166.287 144.794 167.209 145.161 167.941 145.893C168.699 146.6 169.078 147.484 169.078 148.545C169.078 149.278 168.889 150.124 168.51 151.084L168.055 152.106L158.621 175.331ZM146.233 183.59H140.929C135.119 183.59 132.215 185.408 132.215 189.045C132.215 190.334 132.619 191.369 133.427 192.152C134.21 192.935 135.271 193.327 136.61 193.327C138.453 193.327 140.083 192.607 141.497 191.167C142.937 189.727 144.515 187.202 146.233 183.59Z" fill="url(#paint0_linear_815_4272)"/>
<g clip-path="url(#clip0_815_4272)">
<path d="M115.886 66.8625C113.391 66.8625 111.366 64.8348 111.366 62.3374V43.4352C111.366 40.9378 113.391 38.9102 115.886 38.9102C118.381 38.9102 120.407 40.9378 120.407 43.4352V62.3374C120.407 64.8348 118.381 66.8625 115.886 66.8625Z" fill="url(#paint1_linear_815_4272)"/>
<path d="M63.0263 74.9783C65.5211 74.9783 67.5467 72.9506 67.5467 70.4532V35.318C67.5467 32.8207 65.5211 30.793 63.0263 30.793C60.5315 30.793 58.5059 32.8207 58.5059 35.318V70.4532C58.5059 72.9506 60.5315 74.9783 63.0263 74.9783Z" fill="url(#paint2_linear_815_4272)"/>
<path d="M44.0578 62.2854C46.5526 62.2854 48.5781 60.2577 48.5781 57.7603V48.0114C48.5781 45.514 46.5526 43.4863 44.0578 43.4863C41.5629 43.4863 39.5374 45.514 39.5374 48.0114V57.7603C39.5374 60.2577 41.5629 62.2854 44.0578 62.2854Z" fill="url(#paint3_linear_815_4272)"/>
<path d="M97.8161 15.3227H96.4085C94.2971 15.3227 92.5919 17.0353 92.5919 19.1432V26.475C92.5919 28.4339 91.0069 30.0205 89.05 30.0205C87.0931 30.0205 85.5081 28.4339 85.5081 26.475V4.62861C85.5023 2.15987 83.5683 0.0634449 81.1021 0.000437571C78.5501 -0.0625697 76.4615 1.98803 76.4615 4.52551V101.15C76.4615 103.619 78.3956 105.709 80.8618 105.778C83.4138 105.841 85.5023 103.791 85.5023 101.253V79.3037C85.5023 77.3448 87.0873 75.7581 89.0443 75.7581C91.0012 75.7581 92.5862 77.3448 92.5862 79.3037V86.6355C92.5862 88.7434 94.2971 90.456 96.4028 90.456H97.8104C99.9218 90.456 101.627 88.7434 101.627 86.6355V19.1489C101.627 17.0353 99.9161 15.3284 97.8104 15.3284L97.8161 15.3227ZM93.1298 64.8521C93.1298 66.5877 91.7279 67.991 89.9941 67.991C88.2604 67.991 86.8585 66.5877 86.8585 64.8521V39.8153C86.8585 38.0798 88.2604 36.6764 89.9941 36.6764C91.7279 36.6764 93.1298 38.0798 93.1298 39.8153V64.8521Z" fill="url(#paint4_linear_815_4272)"/>
<path d="M135.707 53.5709C136.082 51.2602 134.514 49.0829 132.206 48.7078C129.898 48.3327 127.723 49.9019 127.348 52.2126C126.973 54.5233 128.541 56.7005 130.849 57.0756C133.157 57.4507 135.332 55.8816 135.707 53.5709Z" fill="url(#paint5_linear_815_4272)"/>
</g>
<defs>
<linearGradient id="paint0_linear_815_4272" x1="-56.0025" y1="114.226" x2="139.712" y2="258.034" gradientUnits="userSpaceOnUse">
<stop offset="0.121278" stop-color="#8727FF"/>
<stop offset="0.3125" stop-color="#00F7FF"/>
<stop offset="0.584491" stop-color="#9D44FD"/>
<stop offset="1" stop-color="#8727FF"/>
</linearGradient>
<linearGradient id="paint1_linear_815_4272" x1="106.772" y1="25.6537" x2="127.862" y2="53.309" gradientUnits="userSpaceOnUse">
<stop offset="0.12" stop-color="#FF2FB7"/>
<stop offset="0.52" stop-color="#FF00E4"/>
<stop offset="0.71" stop-color="#9C5FEE"/>
<stop offset="1" stop-color="#00F7FF"/>
</linearGradient>
<linearGradient id="paint2_linear_815_4272" x1="53.9116" y1="9.83807" x2="87.8869" y2="38.0212" gradientUnits="userSpaceOnUse">
<stop offset="0.12" stop-color="#FF2FB7"/>
<stop offset="0.52" stop-color="#FF00E4"/>
<stop offset="0.71" stop-color="#9C5FEE"/>
<stop offset="1" stop-color="#00F7FF"/>
</linearGradient>
<linearGradient id="paint3_linear_815_4272" x1="34.9431" y1="34.5709" x2="46.8885" y2="57.8608" gradientUnits="userSpaceOnUse">
<stop offset="0.12" stop-color="#FF2FB7"/>
<stop offset="0.52" stop-color="#FF00E4"/>
<stop offset="0.71" stop-color="#9C5FEE"/>
<stop offset="1" stop-color="#00F7FF"/>
</linearGradient>
<linearGradient id="paint4_linear_815_4272" x1="63.6731" y1="-50.1675" x2="146.382" y2="29.6038" gradientUnits="userSpaceOnUse">
<stop offset="0.12" stop-color="#FF2FB7"/>
<stop offset="0.52" stop-color="#FF00E4"/>
<stop offset="0.71" stop-color="#9C5FEE"/>
<stop offset="1" stop-color="#00F7FF"/>
</linearGradient>
<linearGradient id="paint5_linear_815_4272" x1="122.016" y1="60.0046" x2="134.84" y2="58.9658" gradientUnits="userSpaceOnUse">
<stop offset="0.12" stop-color="#FF2FB7"/>
<stop offset="0.52" stop-color="#FF00E4"/>
<stop offset="0.71" stop-color="#9C5FEE"/>
<stop offset="1" stop-color="#00F7FF"/>
</linearGradient>
<clipPath id="clip0_815_4272">
<rect width="96.2215" height="105.778" fill="white" transform="translate(39.5374)"/>
</clipPath>
</defs>
</svg>
