<svg width="24" height="24" viewBox="0 0 24 24" fill="none" xmlns="http://www.w3.org/2000/svg">
<path d="M3.9889 14.6614L2.46891 13.1414C1.84891 12.5214 1.84891 11.5014 2.46891 10.8814L3.9889 9.36136C4.2489 9.10136 4.4589 8.59136 4.4589 8.23136V6.08133C4.4589 5.20133 5.1789 4.48136 6.0589 4.48136H8.2089C8.5689 4.48136 9.0789 4.27139 9.3389 4.01139L10.8589 2.49137C11.4789 1.87137 12.4989 1.87137 13.1189 2.49137L14.6389 4.01139C14.8989 4.27139 15.4089 4.48136 15.7689 4.48136H17.9189C18.7989 4.48136 19.5189 5.20133 19.5189 6.08133V8.23136C19.5189 8.59136 19.7289 9.10136 19.9889 9.36136L21.5089 10.8814C22.1289 11.5014 22.1289 12.5214 21.5089 13.1414L19.9889 14.6614C19.7289 14.9214 19.5189 15.4314 19.5189 15.7914V17.9413C19.5189 18.8213 18.7989 19.5414 17.9189 19.5414H15.7689C15.4089 19.5414 14.8989 19.7514 14.6389 20.0114L13.1189 21.5314C12.4989 22.1514 11.4789 22.1514 10.8589 21.5314L9.3389 20.0114C9.0789 19.7514 8.5689 19.5414 8.2089 19.5414H6.0589C5.1789 19.5414 4.4589 18.8213 4.4589 17.9413V15.7914C4.4589 15.4214 4.2489 14.9114 3.9889 14.6614Z" stroke="#EFEFEF" stroke-width="1.5" stroke-linecap="round" stroke-linejoin="round"/>
<path d="M9 15.001L15 9.00098" stroke="#EFEFEF" stroke-width="1.5" stroke-linecap="round" stroke-linejoin="round"/>
<path d="M14.4945 14.501H14.5035" stroke="#EFEFEF" stroke-width="2" stroke-linecap="round" stroke-linejoin="round"/>
<path d="M9.49451 9.50098H9.50349" stroke="#EFEFEF" stroke-width="2" stroke-linecap="round" stroke-linejoin="round"/>
</svg>
