<svg width="25" height="25" viewBox="0 0 25 25" fill="none" xmlns="http://www.w3.org/2000/svg">
<path d="M14.6431 3.70041L14.6434 3.7006L20.4033 7.73053C20.4033 7.73055 20.4034 7.73058 20.4034 7.7306C20.8726 8.05906 21.3169 8.59763 21.6443 9.22481C21.9717 9.85202 22.16 10.5252 22.16 11.1009V17.8809C22.16 20.1548 20.3139 22.0009 18.04 22.0009H7.26001C4.98756 22.0009 3.14001 20.1462 3.14001 17.8709V10.9709C3.14001 10.4365 3.3104 9.7974 3.60859 9.19178C3.90664 8.58643 4.31108 8.05779 4.73753 7.72517L4.73764 7.72508L9.74626 3.81615C9.74648 3.81598 9.7467 3.81581 9.74692 3.81564C11.0838 2.78035 13.2528 2.72632 14.6431 3.70041ZM12.65 19.7509C13.3362 19.7509 13.9 19.1871 13.9 18.5009V15.5009C13.9 14.8148 13.3362 14.2509 12.65 14.2509C11.9639 14.2509 11.4 14.8148 11.4 15.5009V18.5009C11.4 19.1871 11.9639 19.7509 12.65 19.7509Z" fill="#00F7FF" stroke="#00F7FF"/>
</svg>
