<svg width="22" height="13" viewBox="0 0 22 13" fill="none" xmlns="http://www.w3.org/2000/svg">
<path fill-rule="evenodd" clip-rule="evenodd" d="M11.3439 11.3295C12.468 12.3653 13.9775 12.9935 15.6195 12.9935C19.1458 12.9935 22 10.1173 22 6.57985C22 3.03158 19.1458 0.155273 15.6195 0.155273C13.9775 0.155273 12.468 0.783399 11.3439 1.81929C10.0546 2.99838 9.23901 4.69547 9.23901 6.57985C9.23914 8.46422 10.0546 10.1614 11.3439 11.3295Z" fill="#E9B040"/>
<path fill-rule="evenodd" clip-rule="evenodd" d="M13.4044 5.89673C13.3823 5.66535 13.3382 5.44499 13.2942 5.21348H9.3931C9.4372 4.9821 9.50335 4.76175 9.56936 4.54126H13.1069C13.0301 4.30927 12.9418 4.08124 12.8424 3.85801H9.84497C9.95522 3.62459 10.0766 3.39658 10.2086 3.17476H12.4678C12.3225 2.93941 12.1605 2.71476 11.983 2.50254H10.6936C10.893 2.25896 11.1104 2.03058 11.3438 1.81929C10.2088 0.794424 8.70999 0.155273 7.05699 0.155273C3.54166 0.155273 0.676514 3.03158 0.676514 6.57985C0.676514 10.1173 3.54166 12.9935 7.05699 12.9935C8.70999 12.9935 10.2086 12.3653 11.3438 11.3295C11.5736 11.1219 11.7873 10.8971 11.983 10.6572H10.6936C10.5172 10.4368 10.363 10.2164 10.2086 9.9739H12.4678C12.6099 9.75599 12.7352 9.52759 12.8425 9.29066H9.84497C9.74575 9.0703 9.64666 8.84994 9.56936 8.6183H13.1069C13.1839 8.39795 13.2392 8.1667 13.294 7.93506C13.3381 7.7147 13.3822 7.48345 13.4043 7.25181C13.4266 7.02839 13.4377 6.80399 13.4375 6.57946C13.4375 6.34847 13.4264 6.11709 13.4044 5.89673Z" fill="#CC2131"/>
<path fill-rule="evenodd" clip-rule="evenodd" d="M15.5645 5.10371L15.4431 5.80901C15.2007 5.68774 15.0243 5.63275 14.826 5.63275C14.308 5.63275 13.9444 6.13961 13.9444 6.85593C13.9444 7.35189 14.1868 7.64929 14.5947 7.64929C14.7598 7.64929 14.9583 7.5943 15.1786 7.48418L15.0575 8.22229C14.8039 8.28844 14.6387 8.32164 14.4513 8.32164C13.702 8.32164 13.2391 7.78158 13.2391 6.91118C13.2391 5.75402 13.8783 4.93848 14.7929 4.93848C14.914 4.93848 15.0241 4.9495 15.1123 4.97155L15.3879 5.0377C15.4763 5.07077 15.4983 5.08179 15.5645 5.10371ZM13.3383 5.58865H13.2722C13.0409 5.58865 12.9086 5.69889 12.6992 6.01834L12.7653 5.61057H12.1371L11.7075 8.25536H12.4019C12.6552 6.63544 12.7214 6.35996 13.052 6.35996H13.0961C13.1622 6.04039 13.2503 5.80888 13.3605 5.59955L13.3383 5.58865ZM9.34922 8.22229C9.16194 8.28844 9.0076 8.31049 8.85339 8.31049C8.50074 8.31049 8.3023 8.11218 8.3023 7.72659C8.3023 7.66044 8.31333 7.57238 8.32435 7.49508L8.36845 7.23062L8.40152 7.02142L8.69905 5.21395H9.38229L9.30513 5.6107H9.65777L9.56958 6.26087H9.21693L9.02965 7.36291C9.01862 7.40701 9.01862 7.44021 9.01862 7.47316C9.01862 7.60545 9.08477 7.66057 9.25 7.66057C9.32717 7.66057 9.39319 7.66057 9.43729 7.63852L9.34922 8.22229ZM6.6934 6.44816C6.6934 6.77889 6.84761 7.01014 7.21129 7.18653C7.49779 7.31882 7.54189 7.36279 7.54189 7.47303C7.54189 7.63839 7.42062 7.71543 7.14514 7.71543C6.93581 7.71543 6.7484 7.68249 6.52804 7.61634L6.42882 8.22229L6.46189 8.23345L6.58316 8.25549C6.62713 8.26639 6.68238 8.27754 6.77044 8.27754C6.92465 8.29959 7.05695 8.29959 7.14514 8.29959C7.87235 8.29959 8.21411 8.02398 8.21411 7.41804C8.21411 7.05423 8.07092 6.84477 7.7293 6.67967C7.43177 6.54738 7.3987 6.51443 7.3987 6.39316C7.3987 6.24998 7.51997 6.18383 7.74032 6.18383C7.87261 6.18383 8.0599 6.19486 8.23629 6.21691L8.33538 5.61083C8.15912 5.57776 7.88364 5.55571 7.7293 5.55571C6.95786 5.55558 6.68238 5.96335 6.6934 6.44816ZM20.843 8.25549H20.1927L20.2259 8.00193C20.0385 8.20024 19.8401 8.28844 19.5865 8.28844C19.0797 8.28844 18.7491 7.85888 18.7491 7.19768C18.7491 6.316 19.2671 5.5666 19.873 5.5666C20.1486 5.5666 20.3469 5.68787 20.5345 5.93027L20.6887 5.00462H21.3719L20.843 8.25549ZM19.8291 7.63839C20.1488 7.63839 20.3691 7.2637 20.3691 6.74568C20.3691 6.40406 20.2477 6.22767 20.0053 6.22767C19.6968 6.22767 19.4655 6.59134 19.4655 7.10936C19.4655 7.46213 19.5866 7.63839 19.8291 7.63839ZM11.465 8.20024C11.2224 8.27754 11.0021 8.31049 10.7487 8.31049C9.97722 8.31049 9.58047 7.90285 9.58047 7.12038C9.58047 6.21678 10.0875 5.54455 10.7817 5.54455C11.3547 5.54455 11.7183 5.91925 11.7183 6.50328C11.7183 6.70172 11.6962 6.88913 11.6301 7.16448H10.2639C10.2528 7.19768 10.2528 7.21973 10.2528 7.24178C10.2528 7.55033 10.4623 7.70454 10.8589 7.70454C11.1123 7.70454 11.3327 7.66044 11.5752 7.53917L11.465 8.20024ZM11.0793 6.62442V6.49225C11.0793 6.2719 10.958 6.15063 10.7487 6.15063C10.5283 6.15063 10.374 6.316 10.3078 6.62442H11.0793ZM4.05963 8.25549H3.37639L3.77313 5.75389L2.88055 8.25549H2.40664L2.35152 5.77593L1.93285 8.25549H1.2937L1.83363 5.00462H2.82543L2.8585 7.02129L3.51957 5.00462H4.59956L4.05963 8.25549ZM5.76775 7.07628C5.70161 7.07628 5.66853 7.06539 5.61341 7.06539C5.22769 7.06539 5.02938 7.20857 5.02938 7.47303C5.02938 7.63839 5.11758 7.73748 5.27179 7.73748C5.55829 7.73748 5.75673 7.47303 5.76775 7.07628ZM6.27461 8.25549H5.70148L5.7125 7.97989C5.53611 8.20024 5.30473 8.29959 4.98516 8.29959C4.61046 8.29959 4.35703 8.01309 4.35703 7.58327C4.35703 6.93323 4.79774 6.55853 5.56918 6.55853C5.64635 6.55853 5.74557 6.56955 5.85569 6.58045C5.87774 6.49238 5.87774 6.45931 5.87774 6.41521C5.87774 6.23896 5.75647 6.17281 5.43689 6.17281C5.23858 6.17281 5.0181 6.19486 4.86389 6.23895L4.76467 6.27203L4.69852 6.28305L4.79774 5.688C5.13937 5.58878 5.37075 5.55571 5.62431 5.55571C6.21936 5.55571 6.53893 5.82016 6.53893 6.32702C6.53893 6.45931 6.52791 6.55853 6.48381 6.85606L6.32947 7.79286L6.30742 7.95797L6.2964 8.09026L6.28537 8.18961L6.27461 8.25549ZM16.6775 7.07628C16.6002 7.07628 16.5673 7.06539 16.5233 7.06539C16.1266 7.06539 15.928 7.20857 15.928 7.47303C15.928 7.63839 16.0274 7.73748 16.1816 7.73748C16.4572 7.73748 16.6664 7.47303 16.6775 7.07628ZM17.1844 8.25549H16.6114L16.6223 7.97989C16.446 8.20024 16.2146 8.29959 15.8951 8.29959C15.5204 8.29959 15.2668 8.01309 15.2668 7.58327C15.2668 6.93323 15.7075 6.55853 16.479 6.55853C16.5563 6.55853 16.6555 6.56955 16.7546 6.58045C16.7766 6.49238 16.7878 6.45931 16.7878 6.41521C16.7878 6.23896 16.6664 6.17281 16.3471 6.17281C16.1485 6.17281 15.9172 6.19486 15.7629 6.23895L15.6747 6.27203L15.6086 6.28305L15.7077 5.688C16.0494 5.58878 16.2807 5.55571 16.5342 5.55571C17.1293 5.55571 17.4378 5.82016 17.4378 6.32702C17.4378 6.45931 17.4378 6.55853 17.3828 6.85606L17.2395 7.79286L17.2175 7.95797L17.1954 8.09026L17.1845 8.18961L17.1844 8.25549ZM19.0357 5.58865H18.9695C18.7383 5.58865 18.606 5.69889 18.3965 6.01834L18.4627 5.61057H17.8344L17.4156 8.25536H18.0989C18.3524 6.63544 18.4186 6.35996 18.7492 6.35996H18.7933C18.8594 6.04039 18.9475 5.80888 19.0577 5.59955L19.0357 5.58865Z" fill="white"/>
</svg>
