<svg width="15" height="14" viewBox="0 0 15 14" fill="none" xmlns="http://www.w3.org/2000/svg">
<path d="M8.4485 10.0755L5.46767 8.44976C5.18154 8.73378 4.81773 8.92673 4.4221 9.00429C4.02647 9.08185 3.61673 9.04053 3.24454 8.88556C2.87236 8.73059 2.55438 8.4689 2.33071 8.13348C2.10703 7.79805 1.98767 7.40392 1.98767 7.00076C1.98767 6.59759 2.10703 6.20346 2.33071 5.86804C2.55438 5.53261 2.87236 5.27092 3.24454 5.11595C3.61673 4.96098 4.02647 4.91967 4.4221 4.99722C4.81773 5.07478 5.18154 5.26773 5.46767 5.55176L8.4485 3.92601C8.34627 3.44635 8.42011 2.94592 8.65652 2.51624C8.89292 2.08655 9.2761 1.75632 9.73598 1.58593C10.1959 1.41554 10.7017 1.41637 11.161 1.58829C11.6203 1.76021 12.0024 2.09171 12.2374 2.52218C12.4724 2.95265 12.5445 3.45332 12.4407 3.93263C12.3369 4.41194 12.064 4.83787 11.6719 5.13251C11.2799 5.42716 10.7949 5.57085 10.3056 5.53729C9.81634 5.50373 9.35548 5.29517 9.00734 4.94976L6.0265 6.57551C6.08612 6.85567 6.08612 7.14525 6.0265 7.42542L9.00734 9.05176C9.35548 8.70634 9.81634 8.49778 10.3056 8.46422C10.7949 8.43067 11.2799 8.57435 11.6719 8.869C12.064 9.16365 12.3369 9.58957 12.4407 10.0689C12.5445 10.5482 12.4724 11.0489 12.2374 11.4793C12.0024 11.9098 11.6203 12.2413 11.161 12.4132C10.7017 12.5851 10.1959 12.586 9.73598 12.4156C9.2761 12.2452 8.89292 11.915 8.65652 11.4853C8.42011 11.0556 8.34627 10.5552 8.4485 10.0755Z" fill="white"/>
</svg>
