<svg width="25" height="24" viewBox="0 0 25 24" fill="none" xmlns="http://www.w3.org/2000/svg">
<path d="M19.6005 12.501C19.6005 11.121 20.7205 10.001 22.1005 10.001V9.00098C22.1005 5.00098 21.1005 4.00098 17.1005 4.00098H7.10046C3.10046 4.00098 2.10046 5.00098 2.10046 9.00098V9.50098C3.48046 9.50098 4.60046 10.621 4.60046 12.001C4.60046 13.381 3.48046 14.501 2.10046 14.501V15.001C2.10046 19.001 3.10046 20.001 7.10046 20.001H17.1005C21.1005 20.001 22.1005 19.001 22.1005 15.001C20.7205 15.001 19.6005 13.881 19.6005 12.501Z" stroke="#EFEFEF" stroke-width="1.5" stroke-linecap="round" stroke-linejoin="round"/>
<path d="M10.1005 4.00098L10.1005 20.001" stroke="#EFEFEF" stroke-width="1.5" stroke-linecap="round" stroke-linejoin="round" stroke-dasharray="5 5"/>
</svg>
