<svg width="15" height="14" viewBox="0 0 15 14" fill="none" xmlns="http://www.w3.org/2000/svg">
<path d="M13.5088 5.83325C13.5088 5.91134 13.441 5.97909 13.363 5.97909C12.6419 5.97909 12.0505 6.5705 12.0505 7.29159C12.0505 8.01267 12.6419 8.60409 13.363 8.60409C13.441 8.60409 13.5088 8.67184 13.5088 8.74992C13.5088 10.0261 13.3101 10.7572 12.8818 11.1855C12.4536 11.6137 11.7225 11.8124 10.4463 11.8124H7.09212V10.7916C7.09212 10.3913 6.76321 10.0624 6.36296 10.0624C5.96271 10.0624 5.63379 10.3913 5.63379 10.7916V11.8124H4.61296C3.33675 11.8124 2.60568 11.6137 2.17742 11.1855C1.74917 10.7572 1.55046 10.0261 1.55046 8.74992V8.45825C1.55046 8.38017 1.61821 8.31242 1.69629 8.31242C2.41737 8.31242 3.00879 7.721 3.00879 6.99992C3.00879 6.27884 2.41737 5.68742 1.69629 5.68742C1.61821 5.68742 1.55046 5.61967 1.55046 5.54159V5.24992C1.55046 3.97371 1.74917 3.24265 2.17742 2.81439C2.60568 2.38613 3.33675 2.18742 4.61296 2.18742H5.63379V3.20825C5.63379 3.6085 5.96271 3.93742 6.36296 3.93742C6.76321 3.93742 7.09212 3.6085 7.09212 3.20825V2.18742H10.4463C11.7225 2.18742 12.4536 2.38613 12.8818 2.81439C13.3101 3.24265 13.5088 3.97371 13.5088 5.24992V5.83325ZM6.36296 8.99492C6.76321 8.99492 7.09212 8.666 7.09212 8.26575V5.73409C7.09212 5.33384 6.76321 5.00492 6.36296 5.00492C5.96271 5.00492 5.63379 5.33384 5.63379 5.73409V8.26575C5.63379 8.666 5.96271 8.99492 6.36296 8.99492Z" fill="white" stroke="white" stroke-width="0.583333"/>
</svg>
