<svg width="25" height="16" viewBox="0 0 25 16" fill="none" xmlns="http://www.w3.org/2000/svg">
<rect width="24" height="15.1485" transform="translate(0.676514)" fill="white"/>
<path fill-rule="evenodd" clip-rule="evenodd" d="M9.17714 10.2642L10.8165 4.85874H12.2793L10.6398 10.2642H9.17714ZM8.52323 4.86022L7.20736 7.15176C6.87252 7.752 6.67656 8.05517 6.58244 8.43417H6.56237C6.58571 7.95362 6.51865 7.36319 6.51241 7.02954L6.36699 4.86022H3.90477L3.87964 5.00564C4.51215 5.00564 4.88728 5.32338 4.99047 5.97343L5.47042 10.2642H6.98582L10.0501 4.86022H8.52323ZM19.8985 10.2642L19.8582 9.46039L18.0319 9.45891L17.6581 10.2642H16.0702L18.9498 4.869H20.8989L21.3864 10.2642H19.8985ZM19.731 7.07563C19.7145 6.67612 19.7011 6.13401 19.728 5.80571H19.7064C19.6175 6.07409 19.2351 6.87996 19.0669 7.27621L18.5227 8.46093H19.8052L19.731 7.07563ZM13.8149 10.4178C12.7823 10.4178 12.0969 10.0902 11.6077 9.79806L12.3044 8.73407C12.7438 8.97969 13.0886 9.26324 13.8823 9.26324C14.1373 9.26324 14.3832 9.19707 14.523 8.95516C14.7262 8.60382 14.476 8.41439 13.9047 8.091L13.6225 7.90753C12.7755 7.32884 12.409 6.779 12.8077 5.81939C13.063 5.20562 13.7358 4.74023 14.8464 4.74023C15.6118 4.74023 16.3298 5.0715 16.7479 5.39504L15.9469 6.33444C15.5386 6.00436 15.2004 5.83738 14.8132 5.83738C14.5045 5.83738 14.2699 5.95648 14.1889 6.11706C14.0365 6.41889 14.2382 6.62467 14.6834 6.90093L15.0188 7.11444C16.0474 7.76315 16.2922 8.44324 16.0347 9.07887C15.591 10.1736 14.723 10.4178 13.8149 10.4178ZM21.8219 5.59131H21.7586V5.20562H21.9049C21.9981 5.20562 22.0454 5.23818 22.0454 5.31654C22.0454 5.38642 22.0027 5.41541 21.9449 5.42181L22.053 5.59131H21.9813L21.8817 5.42656H21.8219V5.59131ZM21.8927 5.37229C21.9403 5.37229 21.9822 5.36769 21.9822 5.31178C21.9822 5.26524 21.9366 5.25959 21.8986 5.25959H21.8219V5.37229H21.8927ZM21.8909 5.74044C21.6905 5.74044 21.5479 5.59042 21.5479 5.39192C21.5479 5.18242 21.7061 5.04355 21.8909 5.04355C22.0734 5.04355 22.2318 5.18242 22.2318 5.39192C22.2318 5.60157 22.0734 5.74044 21.8909 5.74044ZM21.8909 5.10407C21.7399 5.10407 21.6225 5.22242 21.6225 5.39192C21.6225 5.55027 21.725 5.67978 21.8909 5.67978C22.0399 5.67978 22.1572 5.56231 22.1572 5.39192C22.1572 5.22242 22.0399 5.10407 21.8909 5.10407Z" fill="#1D5B99"/>
<path fill-rule="evenodd" clip-rule="evenodd" d="M24.6752 11.9434H0.719482V15.1486H24.6752V11.9434Z" fill="#E7A83A"/>
<path fill-rule="evenodd" clip-rule="evenodd" d="M24.6321 0H0.676514V3.20536H24.6321V0ZM24.0846 14.9206H24.0213V14.5349H24.1676C24.2608 14.5349 24.3081 14.5674 24.3081 14.6458C24.3081 14.7155 24.2654 14.7445 24.2076 14.7509L24.3157 14.9206H24.244L24.1444 14.7557H24.0846V14.9206ZM24.1555 14.7015C24.2031 14.7015 24.245 14.6969 24.245 14.6409C24.245 14.5945 24.1994 14.5888 24.1615 14.5888H24.0848V14.7015H24.1555ZM24.1538 15.0695C23.9533 15.0695 23.8107 14.9197 23.8107 14.721C23.8107 14.5117 23.9692 14.3728 24.1538 14.3728C24.3365 14.3728 24.4947 14.5117 24.4947 14.721C24.4947 14.9307 24.3365 15.0695 24.1538 15.0695ZM24.1538 14.4332C24.0027 14.4332 23.8854 14.5517 23.8854 14.721C23.8854 14.8795 23.9878 15.0089 24.1538 15.0089C24.3027 15.0089 24.42 14.8916 24.42 14.721C24.42 14.5517 24.3027 14.4332 24.1538 14.4332Z" fill="#1D5B99"/>
</svg>
