<svg width="14" height="11" viewBox="0 0 14 11" fill="none" xmlns="http://www.w3.org/2000/svg">
<path d="M4.6365 0.679688L5.34693 1.88701C4.9481 2.40781 4.57418 2.9878 4.2252 3.62697C3.90114 4.26614 3.71419 4.92899 3.66433 5.6155L5.72085 5.9706V10.0542H0V7.14241C0 5.46163 0.411303 4.11227 1.23391 3.09433C2.08144 2.05272 3.21564 1.24784 4.6365 0.679688ZM12.04 0.679688L12.7504 1.88701C12.3515 2.40781 11.9776 2.9878 11.6286 3.62697C11.3046 4.26614 11.1176 4.92899 11.0678 5.6155L13.1243 5.9706V10.0542H7.40345V7.14241C7.40345 5.46163 7.81475 4.11227 8.63736 3.09433C9.48489 2.05272 10.6191 1.24784 12.04 0.679688Z" fill="white"/>
</svg>
