<svg width="380" height="100" viewBox="0 0 380 100" fill="none" xmlns="http://www.w3.org/2000/svg">
<path d="M359.059 0H8.18555V100H359.059V0Z" fill="#666666"/>
<path d="M340.688 100H380V96.4789C378.248 96.4789 376.834 95.0592 376.834 93.3127C376.834 91.5662 378.254 90.1465 380 90.1465V86.7831C378.248 86.7831 376.834 85.3634 376.834 83.6169C376.834 81.8704 378.254 80.4507 380 80.4507V77.0873C378.248 77.0873 376.834 75.6676 376.834 73.9211C376.834 72.1747 378.254 70.7549 380 70.7549V67.3916C378.248 67.3916 376.834 65.9718 376.834 64.2254C376.834 62.4789 378.254 61.0592 380 61.0592V57.6958C378.248 57.6958 376.834 56.2761 376.834 54.5296C376.834 52.7831 378.254 51.3634 380 51.3634V48C378.248 48 376.834 46.5803 376.834 44.8338C376.834 43.0873 378.254 41.6676 380 41.6676V38.3042C378.248 38.3042 376.834 36.8845 376.834 35.138C376.834 33.3915 378.254 31.9718 380 31.9718V28.6085C378.248 28.6085 376.834 27.1887 376.834 25.4423C376.834 23.6958 378.254 22.2761 380 22.2761V18.9127C378.248 18.9127 376.834 17.493 376.834 15.7465C376.834 14 378.254 12.5803 380 12.5803V9.2169C378.248 9.2169 376.834 7.79718 376.834 6.0507C376.834 4.30423 378.254 2.88451 380 2.88451V0H340.688V100Z" fill="#666666"/>
<path d="M39.307 0H0V3.52113C1.75211 3.52113 3.1662 4.94085 3.1662 6.68732C3.1662 8.4338 1.74648 9.85352 0 9.85352V13.2169C1.75211 13.2169 3.1662 14.6366 3.1662 16.3831C3.1662 18.1296 1.74648 19.5493 0 19.5493V22.9127C1.75211 22.9127 3.1662 24.3324 3.1662 26.0789C3.1662 27.8254 1.74648 29.2451 0 29.2451V32.6085C1.75211 32.6085 3.1662 34.0282 3.1662 35.7747C3.1662 37.5211 1.74648 38.9408 0 38.9408V42.3042C1.75211 42.3042 3.1662 43.7239 3.1662 45.4704C3.1662 47.2169 1.74648 48.6366 0 48.6366V52C1.75211 52 3.1662 53.4197 3.1662 55.1662C3.1662 56.9127 1.74648 58.3324 0 58.3324V61.6958C1.75211 61.6958 3.1662 63.1155 3.1662 64.862C3.1662 66.6085 1.74648 68.0282 0 68.0282V71.3916C1.75211 71.3916 3.1662 72.8113 3.1662 74.5577C3.1662 76.3042 1.74648 77.724 0 77.724V81.0873C1.75211 81.0873 3.1662 82.507 3.1662 84.2535C3.1662 86 1.74648 87.4197 0 87.4197V90.7831C1.75211 90.7831 3.1662 92.2028 3.1662 93.9493C3.1662 95.6958 1.74648 97.1155 0 97.1155V99.9324H39.3127V0H39.307Z" fill="#00F7FF"/>
<path d="M216.627 27.0097L210.069 30.4576L211.326 23.1562L206.019 17.9844L213.348 16.9196L216.627 10.2773L219.912 16.9196L227.241 17.9844L221.934 23.1562L223.19 30.4576L216.627 27.0097Z" fill="#00F7FF"/>
<path d="M354.013 27.0097L347.455 30.4576L348.706 23.1562L343.399 17.9844L350.734 16.9196L354.013 10.2773L357.292 16.9196L364.621 17.9844L359.32 23.1562L360.571 30.4576L354.013 27.0097Z" fill="#00F7FF"/>
<path d="M252.944 24.4272C252.512 24.4272 252.128 24.3672 251.792 24.2472C251.464 24.1192 251.2 23.9072 251 23.6112C250.808 23.3072 250.7 22.8872 250.676 22.3512L250.484 18.1752H251.456L251.648 22.1352C251.672 22.5112 251.74 22.7952 251.852 22.9872C251.964 23.1712 252.12 23.2952 252.32 23.3592C252.528 23.4152 252.776 23.4432 253.064 23.4432C253.232 23.4432 253.352 23.4912 253.424 23.5872C253.504 23.6752 253.544 23.7832 253.544 23.9112C253.544 24.0392 253.488 24.1592 253.376 24.2712C253.264 24.3752 253.12 24.4272 252.944 24.4272ZM251.132 23.1072C250.676 23.2512 250.232 23.3232 249.8 23.3232C249.368 23.3232 248.976 23.2592 248.624 23.1312C248.272 23.0032 247.992 22.8192 247.784 22.5792C247.576 22.3312 247.472 22.0352 247.472 21.6912C247.472 21.3552 247.556 21.0392 247.724 20.7432C247.9 20.4472 248.136 20.1832 248.432 19.9512C248.736 19.7192 249.084 19.5272 249.476 19.3752C249.876 19.2152 250.3 19.1072 250.748 19.0512L250.916 20.0592C250.516 20.0752 250.16 20.1312 249.848 20.2272C249.544 20.3152 249.284 20.4312 249.068 20.5752C248.86 20.7192 248.7 20.8752 248.588 21.0432C248.476 21.2112 248.42 21.3752 248.42 21.5352C248.42 21.7112 248.484 21.8552 248.612 21.9672C248.74 22.0792 248.904 22.1672 249.104 22.2312C249.304 22.2872 249.524 22.3232 249.764 22.3392C250.004 22.3472 250.236 22.3392 250.46 22.3152C250.684 22.2832 250.876 22.2392 251.036 22.1832L251.132 23.1072ZM250.88 16.7952C250.712 16.7952 250.568 16.7392 250.448 16.6272C250.336 16.5072 250.28 16.3672 250.28 16.2072C250.28 16.0472 250.336 15.9072 250.448 15.7872C250.568 15.6672 250.712 15.6072 250.88 15.6072C251.04 15.6072 251.176 15.6672 251.288 15.7872C251.408 15.9072 251.468 16.0472 251.468 16.2072C251.468 16.3672 251.408 16.5072 251.288 16.6272C251.176 16.7392 251.04 16.7952 250.88 16.7952ZM249.236 16.7952C249.068 16.7952 248.924 16.7392 248.804 16.6272C248.692 16.5072 248.636 16.3672 248.636 16.2072C248.636 16.0472 248.692 15.9072 248.804 15.7872C248.924 15.6672 249.068 15.6072 249.236 15.6072C249.396 15.6072 249.532 15.6672 249.644 15.7872C249.764 15.9072 249.824 16.0472 249.824 16.2072C249.824 16.3672 249.764 16.5072 249.644 16.6272C249.532 16.7392 249.396 16.7952 249.236 16.7952ZM252.648 24.4272L252.768 23.4432C253.168 23.4432 253.48 23.4152 253.704 23.3592C253.928 23.2952 254.096 23.1792 254.208 23.0112C254.328 22.8352 254.424 22.5832 254.496 22.2552C254.568 21.9272 254.656 21.4992 254.76 20.9712L255.696 21.1512C255.664 21.2952 255.628 21.4552 255.588 21.6312C255.548 21.8072 255.512 21.9832 255.48 22.1592C255.456 22.3272 255.444 22.4752 255.444 22.6032C255.444 22.7232 255.452 22.8352 255.468 22.9392C255.484 23.0432 255.544 23.1312 255.648 23.2032C255.752 23.2752 255.928 23.3352 256.176 23.3832C256.424 23.4232 256.78 23.4432 257.244 23.4432C257.412 23.4432 257.532 23.4912 257.604 23.5872C257.684 23.6752 257.724 23.7832 257.724 23.9112C257.724 24.0392 257.668 24.1592 257.556 24.2712C257.444 24.3752 257.3 24.4272 257.124 24.4272C256.636 24.4272 256.248 24.4032 255.96 24.3552C255.672 24.2992 255.452 24.2192 255.3 24.1152C255.156 24.0112 255.052 23.8832 254.988 23.7312C254.932 23.5712 254.888 23.3872 254.856 23.1792L255.216 23.2032C255.088 23.4592 254.948 23.6672 254.796 23.8272C254.652 23.9872 254.484 24.1112 254.292 24.1992C254.1 24.2872 253.868 24.3472 253.596 24.3792C253.332 24.4112 253.016 24.4272 252.648 24.4272ZM255.672 26.6952C255.504 26.6952 255.36 26.6352 255.24 26.5152C255.128 26.4032 255.072 26.2672 255.072 26.1072C255.072 25.9472 255.128 25.8072 255.24 25.6872C255.36 25.5672 255.504 25.5072 255.672 25.5072C255.832 25.5072 255.968 25.5672 256.08 25.6872C256.2 25.8072 256.26 25.9472 256.26 26.1072C256.26 26.2672 256.2 26.4032 256.08 26.5152C255.968 26.6352 255.832 26.6952 255.672 26.6952ZM254.028 26.6952C253.86 26.6952 253.716 26.6352 253.596 26.5152C253.484 26.4032 253.428 26.2672 253.428 26.1072C253.428 25.9472 253.484 25.8072 253.596 25.6872C253.716 25.5672 253.86 25.5072 254.028 25.5072C254.188 25.5072 254.324 25.5672 254.436 25.6872C254.556 25.8072 254.616 25.9472 254.616 26.1072C254.616 26.2672 254.556 26.4032 254.436 26.5152C254.324 26.6352 254.188 26.6952 254.028 26.6952ZM256.825 24.4272L256.945 23.4432C257.145 23.4432 257.349 23.4432 257.557 23.4432C257.773 23.4352 257.985 23.4232 258.193 23.4072C258.401 23.3912 258.601 23.3712 258.793 23.3472C258.985 23.3232 259.157 23.2872 259.309 23.2392C259.589 23.1512 259.845 23.0352 260.077 22.8912C260.317 22.7472 260.509 22.5712 260.653 22.3632C260.805 22.1552 260.881 21.9152 260.881 21.6432C260.881 21.4592 260.837 21.2712 260.749 21.0792C260.661 20.8792 260.541 20.7112 260.389 20.5752C260.237 20.4392 260.061 20.3712 259.861 20.3712C259.669 20.3712 259.489 20.4352 259.321 20.5632C259.161 20.6912 259.029 20.8592 258.925 21.0672C258.829 21.2672 258.781 21.4752 258.781 21.6912C258.781 21.9472 258.845 22.1792 258.973 22.3872C259.109 22.5872 259.273 22.7592 259.465 22.9032C259.657 23.0472 259.849 23.1632 260.041 23.2512L258.901 23.5872C258.773 23.4912 258.621 23.3592 258.445 23.1912C258.277 23.0152 258.125 22.7992 257.989 22.5432C257.861 22.2872 257.797 21.9952 257.797 21.6672C257.797 21.3472 257.853 21.0512 257.965 20.7792C258.085 20.4992 258.241 20.2552 258.433 20.0472C258.633 19.8392 258.857 19.6792 259.105 19.5672C259.361 19.4472 259.625 19.3872 259.897 19.3872C260.289 19.3872 260.633 19.4952 260.929 19.7112C261.225 19.9272 261.453 20.2032 261.613 20.5392C261.781 20.8672 261.865 21.2112 261.865 21.5712C261.865 21.9152 261.801 22.2272 261.673 22.5072C261.545 22.7792 261.369 23.0232 261.145 23.2392C260.929 23.4552 260.673 23.6392 260.377 23.7912C260.089 23.9432 259.781 24.0672 259.453 24.1632C259.269 24.2192 259.069 24.2632 258.853 24.2952C258.645 24.3272 258.425 24.3512 258.193 24.3672C257.961 24.3912 257.729 24.4072 257.497 24.4152C257.265 24.4232 257.041 24.4272 256.825 24.4272ZM262.765 24.4272C262.365 24.4272 261.949 24.4032 261.517 24.3552C261.093 24.2992 260.689 24.2312 260.305 24.1512C259.929 24.0632 259.617 23.9672 259.369 23.8632L260.197 23.2632C260.437 23.2952 260.721 23.3272 261.049 23.3592C261.377 23.3832 261.705 23.4032 262.033 23.4192C262.361 23.4352 262.645 23.4432 262.885 23.4432C263.053 23.4432 263.173 23.4912 263.245 23.5872C263.325 23.6752 263.365 23.7832 263.365 23.9112C263.365 24.0392 263.309 24.1592 263.197 24.2712C263.085 24.3752 262.941 24.4272 262.765 24.4272ZM260.629 18.1512C260.461 18.1512 260.317 18.0952 260.197 17.9832C260.085 17.8632 260.029 17.7232 260.029 17.5632C260.029 17.4032 260.085 17.2632 260.197 17.1432C260.317 17.0232 260.461 16.9632 260.629 16.9632C260.789 16.9632 260.925 17.0232 261.037 17.1432C261.157 17.2632 261.217 17.4032 261.217 17.5632C261.217 17.7232 261.157 17.8632 261.037 17.9832C260.925 18.0952 260.789 18.1512 260.629 18.1512ZM258.985 18.1512C258.817 18.1512 258.673 18.0952 258.553 17.9832C258.441 17.8632 258.385 17.7232 258.385 17.5632C258.385 17.4032 258.441 17.2632 258.553 17.1432C258.673 17.0232 258.817 16.9632 258.985 16.9632C259.145 16.9632 259.281 17.0232 259.393 17.1432C259.513 17.2632 259.573 17.4032 259.573 17.5632C259.573 17.7232 259.513 17.8632 259.393 17.9832C259.281 18.0952 259.145 18.1512 258.985 18.1512ZM262.466 24.4272L262.586 23.4432C262.986 23.4432 263.298 23.4152 263.522 23.3592C263.746 23.2952 263.914 23.1792 264.026 23.0112C264.146 22.8352 264.242 22.5832 264.314 22.2552C264.386 21.9272 264.474 21.4992 264.578 20.9712L265.514 21.1512C265.482 21.2952 265.446 21.4552 265.406 21.6312C265.366 21.8072 265.33 21.9832 265.298 22.1592C265.274 22.3272 265.262 22.4752 265.262 22.6032C265.262 22.7232 265.27 22.8352 265.286 22.9392C265.302 23.0432 265.362 23.1312 265.466 23.2032C265.57 23.2752 265.746 23.3352 265.994 23.3832C266.242 23.4232 266.598 23.4432 267.062 23.4432C267.23 23.4432 267.35 23.4912 267.422 23.5872C267.502 23.6752 267.542 23.7832 267.542 23.9112C267.542 24.0392 267.486 24.1592 267.374 24.2712C267.262 24.3752 267.118 24.4272 266.942 24.4272C266.454 24.4272 266.066 24.4032 265.778 24.3552C265.49 24.2992 265.27 24.2192 265.118 24.1152C264.974 24.0112 264.87 23.8832 264.806 23.7312C264.75 23.5712 264.706 23.3872 264.674 23.1792L265.034 23.2032C264.906 23.4592 264.766 23.6672 264.614 23.8272C264.47 23.9872 264.302 24.1112 264.11 24.1992C263.918 24.2872 263.686 24.3472 263.414 24.3792C263.15 24.4112 262.834 24.4272 262.466 24.4272ZM265.49 26.6952C265.322 26.6952 265.178 26.6352 265.058 26.5152C264.946 26.4032 264.89 26.2672 264.89 26.1072C264.89 25.9472 264.946 25.8072 265.058 25.6872C265.178 25.5672 265.322 25.5072 265.49 25.5072C265.65 25.5072 265.786 25.5672 265.898 25.6872C266.018 25.8072 266.078 25.9472 266.078 26.1072C266.078 26.2672 266.018 26.4032 265.898 26.5152C265.786 26.6352 265.65 26.6952 265.49 26.6952ZM263.846 26.6952C263.678 26.6952 263.534 26.6352 263.414 26.5152C263.302 26.4032 263.246 26.2672 263.246 26.1072C263.246 25.9472 263.302 25.8072 263.414 25.6872C263.534 25.5672 263.678 25.5072 263.846 25.5072C264.006 25.5072 264.142 25.5672 264.254 25.6872C264.374 25.8072 264.434 25.9472 264.434 26.1072C264.434 26.2672 264.374 26.4032 264.254 26.5152C264.142 26.6352 264.006 26.6952 263.846 26.6952ZM266.643 24.4272L266.763 23.4432C267.019 23.4432 267.227 23.4272 267.387 23.3952C267.547 23.3552 267.679 23.2632 267.783 23.1192C267.895 22.9672 267.999 22.7312 268.095 22.4112C268.191 22.0912 268.303 21.6432 268.431 21.0672L269.331 21.3192C269.299 21.4552 269.263 21.6112 269.223 21.7872C269.183 21.9552 269.147 22.1312 269.115 22.3152C269.083 22.4912 269.067 22.6552 269.067 22.8072C269.067 23.0072 269.143 23.1632 269.295 23.2752C269.447 23.3872 269.723 23.4432 270.123 23.4432C270.363 23.4432 270.559 23.4232 270.711 23.3832C270.863 23.3432 270.987 23.2472 271.083 23.0952C271.187 22.9432 271.279 22.6992 271.359 22.3632C271.439 22.0272 271.523 21.5672 271.611 20.9832L272.523 21.1512C272.499 21.2952 272.471 21.4712 272.439 21.6792C272.407 21.8872 272.375 22.0952 272.343 22.3032C272.319 22.5032 272.307 22.6712 272.307 22.8072C272.307 22.9192 272.331 23.0272 272.379 23.1312C272.435 23.2272 272.539 23.3032 272.691 23.3592C272.851 23.4152 273.087 23.4432 273.399 23.4432C273.631 23.4432 273.831 23.4152 273.999 23.3592C274.175 23.3032 274.307 23.1992 274.395 23.0472C274.491 22.8952 274.539 22.6832 274.539 22.4112C274.539 22.1072 274.467 21.7272 274.323 21.2712C274.187 20.8072 274.031 20.3472 273.855 19.8912L274.827 19.5312C274.931 19.7872 275.027 20.0792 275.115 20.4072C275.211 20.7352 275.291 21.0592 275.355 21.3792C275.419 21.6992 275.451 21.9792 275.451 22.2192C275.451 22.5872 275.403 22.9112 275.307 23.1912C275.211 23.4712 275.075 23.7032 274.899 23.8872C274.723 24.0632 274.507 24.1992 274.251 24.2952C273.995 24.3832 273.707 24.4272 273.387 24.4272C273.011 24.4272 272.703 24.3832 272.463 24.2952C272.223 24.2072 272.039 24.0752 271.911 23.8992C271.783 23.7152 271.699 23.4832 271.659 23.2032H272.067C271.915 23.5472 271.755 23.8072 271.587 23.9832C271.419 24.1592 271.211 24.2792 270.963 24.3432C270.715 24.3992 270.387 24.4272 269.979 24.4272C269.779 24.4272 269.563 24.3952 269.331 24.3312C269.107 24.2672 268.911 24.1432 268.743 23.9592C268.575 23.7672 268.475 23.4832 268.443 23.1072L268.803 23.0352C268.667 23.4432 268.499 23.7472 268.299 23.9472C268.107 24.1392 267.875 24.2672 267.603 24.3312C267.331 24.3952 267.011 24.4272 266.643 24.4272ZM276.449 27.1272L276.233 26.1432C276.713 26.0792 277.153 25.9872 277.553 25.8672C277.961 25.7552 278.309 25.5912 278.597 25.3752C278.893 25.1592 279.121 24.8752 279.281 24.5232C279.441 24.1712 279.521 23.7312 279.521 23.2032C279.521 22.6592 279.421 22.2072 279.221 21.8472C279.021 21.4872 278.761 21.3072 278.441 21.3072C278.273 21.3072 278.117 21.3712 277.973 21.4992C277.829 21.6272 277.709 21.7992 277.613 22.0152C277.525 22.2312 277.481 22.4672 277.481 22.7232C277.481 22.8672 277.513 22.9872 277.577 23.0832C277.641 23.1712 277.733 23.2432 277.853 23.2992C277.981 23.3472 278.141 23.3832 278.333 23.4072C278.525 23.4312 278.749 23.4432 279.005 23.4432H281.537C281.705 23.4432 281.825 23.4912 281.897 23.5872C281.977 23.6752 282.017 23.7832 282.017 23.9112C282.017 24.0392 281.961 24.1592 281.849 24.2712C281.737 24.3752 281.593 24.4272 281.417 24.4272H278.549C278.189 24.4272 277.853 24.3752 277.541 24.2712C277.237 24.1672 276.989 24.0072 276.797 23.7912C276.613 23.5672 276.521 23.2752 276.521 22.9152C276.521 22.5792 276.573 22.2592 276.677 21.9552C276.781 21.6432 276.921 21.3672 277.097 21.1272C277.281 20.8792 277.493 20.6832 277.733 20.5392C277.981 20.3952 278.249 20.3232 278.537 20.3232C278.905 20.3232 279.233 20.4312 279.521 20.6472C279.809 20.8632 280.037 21.1912 280.205 21.6312C280.373 22.0632 280.457 22.6112 280.457 23.2752C280.457 24.0192 280.305 24.6592 280.001 25.1952C279.705 25.7392 279.257 26.1712 278.657 26.4912C278.065 26.8112 277.329 27.0232 276.449 27.1272ZM281.113 24.4272L281.233 23.4432C281.457 23.4432 281.633 23.3952 281.761 23.2992C281.897 23.2032 282.025 23.0432 282.145 22.8192C282.273 22.5952 282.433 22.2952 282.625 21.9192C282.817 21.5352 283.009 21.2232 283.201 20.9832C283.401 20.7352 283.593 20.5432 283.777 20.4072C283.969 20.2632 284.149 20.1632 284.317 20.1072C284.485 20.0512 284.641 20.0232 284.785 20.0232C285.049 20.0232 285.285 20.0832 285.493 20.2032C285.701 20.3152 285.897 20.5112 286.081 20.7912C286.265 21.0632 286.453 21.4392 286.645 21.9192C286.829 22.3592 286.993 22.6912 287.137 22.9152C287.289 23.1312 287.445 23.2752 287.605 23.3472C287.773 23.4112 287.961 23.4432 288.169 23.4432C288.337 23.4432 288.457 23.4912 288.529 23.5872C288.609 23.6752 288.649 23.7832 288.649 23.9112C288.649 24.0392 288.593 24.1592 288.481 24.2712C288.369 24.3752 288.225 24.4272 288.049 24.4272C287.737 24.4272 287.449 24.3752 287.185 24.2712C286.929 24.1672 286.713 24.0032 286.537 23.7792L286.705 23.5272C286.617 23.7752 286.497 23.9792 286.345 24.1392C286.201 24.2912 286.037 24.4032 285.853 24.4752C285.669 24.5552 285.473 24.5952 285.265 24.5952C285.001 24.5952 284.729 24.5392 284.449 24.4272C284.177 24.3152 283.913 24.1552 283.657 23.9472C283.401 23.7392 283.177 23.4952 282.985 23.2152C282.777 23.5832 282.577 23.8552 282.385 24.0312C282.201 24.1992 282.009 24.3072 281.809 24.3552C281.609 24.4032 281.377 24.4272 281.113 24.4272ZM283.441 22.3032C283.577 22.5272 283.721 22.7232 283.873 22.8912C284.033 23.0592 284.193 23.1992 284.353 23.3112C284.513 23.4152 284.669 23.4952 284.821 23.5512C284.981 23.5992 285.125 23.6232 285.253 23.6232C285.533 23.6232 285.737 23.5232 285.865 23.3232C286.001 23.1232 285.997 22.8432 285.853 22.4832C285.781 22.2992 285.705 22.1192 285.625 21.9432C285.553 21.7672 285.473 21.6072 285.385 21.4632C285.297 21.3112 285.197 21.1952 285.085 21.1152C284.973 21.0272 284.849 20.9832 284.713 20.9832C284.593 20.9832 284.465 21.0232 284.329 21.1032C284.201 21.1832 284.061 21.3192 283.909 21.5112C283.765 21.7032 283.609 21.9672 283.441 22.3032ZM287.751 24.4272L287.859 23.4432C288.315 23.4432 288.635 23.3992 288.819 23.3112C289.003 23.2232 289.107 23.0672 289.131 22.8432C289.163 22.6192 289.171 22.3072 289.155 21.9072L288.927 15.7992H289.899L290.139 21.7992C290.155 22.2232 290.139 22.5992 290.091 22.9272C290.051 23.2552 289.947 23.5312 289.779 23.7552C289.619 23.9792 289.375 24.1472 289.047 24.2592C288.727 24.3712 288.295 24.4272 287.751 24.4272ZM291.672 24.3672L291.432 15.7992H292.404L292.644 24.3672H291.672ZM300.601 24.6192L300.913 23.6352C301.849 23.6352 302.653 23.6112 303.325 23.5632C304.005 23.5152 304.561 23.4392 304.993 23.3352C305.433 23.2232 305.757 23.0752 305.965 22.8912C306.181 22.6992 306.289 22.4672 306.289 22.1952C306.289 21.8912 306.233 21.5392 306.121 21.1392C306.009 20.7392 305.865 20.3112 305.689 19.8552L306.613 19.5312C306.717 19.7872 306.813 20.0632 306.901 20.3592C306.997 20.6472 307.077 20.9352 307.141 21.2232C307.205 21.5032 307.237 21.7632 307.237 22.0032C307.237 22.4752 307.129 22.8792 306.913 23.2152C306.697 23.5432 306.337 23.8112 305.833 24.0192C305.329 24.2272 304.649 24.3792 303.793 24.4752C302.945 24.5712 301.881 24.6192 300.601 24.6192ZM300.601 24.6192C299.889 24.6192 299.261 24.5712 298.717 24.4752C298.181 24.3872 297.733 24.2472 297.373 24.0552C297.013 23.8632 296.741 23.6152 296.557 23.3112C296.373 22.9992 296.281 22.6232 296.281 22.1832C296.281 21.9832 296.297 21.7792 296.329 21.5712C296.361 21.3552 296.401 21.1392 296.449 20.9232C296.505 20.7072 296.561 20.4992 296.617 20.2992L297.517 20.5272C297.485 20.6472 297.449 20.7912 297.409 20.9592C297.369 21.1192 297.333 21.2832 297.301 21.4512C297.277 21.6192 297.265 21.7712 297.265 21.9072C297.265 22.3232 297.369 22.6592 297.577 22.9152C297.793 23.1632 298.165 23.3472 298.693 23.4672C299.221 23.5792 299.961 23.6352 300.913 23.6352L301.153 24.2352L300.601 24.6192ZM301.789 18.2352C301.621 18.2352 301.477 18.1792 301.357 18.0672C301.245 17.9472 301.189 17.8072 301.189 17.6472C301.189 17.4872 301.245 17.3472 301.357 17.2272C301.477 17.1072 301.621 17.0472 301.789 17.0472C301.949 17.0472 302.085 17.1072 302.197 17.2272C302.317 17.3472 302.377 17.4872 302.377 17.6472C302.377 17.8072 302.317 17.9472 302.197 18.0672C302.085 18.1792 301.949 18.2352 301.789 18.2352ZM300.973 19.5552C300.805 19.5552 300.661 19.4992 300.541 19.3872C300.429 19.2672 300.373 19.1272 300.373 18.9672C300.373 18.8072 300.429 18.6672 300.541 18.5472C300.661 18.4272 300.805 18.3672 300.973 18.3672C301.133 18.3672 301.269 18.4272 301.381 18.5472C301.501 18.6672 301.561 18.8072 301.561 18.9672C301.561 19.1272 301.501 19.2672 301.381 19.3872C301.269 19.4992 301.133 19.5552 300.973 19.5552ZM302.605 19.5552C302.437 19.5552 302.293 19.4992 302.173 19.3872C302.061 19.2672 302.005 19.1272 302.005 18.9672C302.005 18.8072 302.061 18.6672 302.173 18.5472C302.293 18.4272 302.437 18.3672 302.605 18.3672C302.765 18.3672 302.901 18.4272 303.013 18.5472C303.133 18.6672 303.193 18.8072 303.193 18.9672C303.193 19.1272 303.133 19.2672 303.013 19.3872C302.901 19.4992 302.765 19.5552 302.605 19.5552ZM308.643 24.3672L308.403 15.7992H309.375L309.615 24.3672H308.643ZM312.678 23.4432C313.078 23.4432 313.394 23.4032 313.626 23.3232C313.866 23.2432 314.038 23.1272 314.142 22.9752C314.254 22.8152 314.31 22.6312 314.31 22.4232C314.31 22.2632 314.266 22.0712 314.178 21.8472C314.098 21.6232 313.986 21.3752 313.842 21.1032C313.698 20.8232 313.53 20.5312 313.338 20.2272C313.154 19.9152 312.954 19.5992 312.738 19.2792L313.566 18.7392C313.878 19.2112 314.15 19.6592 314.382 20.0832C314.614 20.4992 314.81 20.8912 314.97 21.2592C315.13 21.6192 315.258 21.9592 315.354 22.2792C315.466 22.6312 315.59 22.8912 315.726 23.0592C315.87 23.2272 316.018 23.3352 316.17 23.3832C316.322 23.4232 316.462 23.4432 316.59 23.4432C316.758 23.4432 316.882 23.4912 316.962 23.5872C317.042 23.6752 317.082 23.7832 317.082 23.9112C317.082 24.0392 317.026 24.1592 316.914 24.2712C316.802 24.3752 316.658 24.4272 316.482 24.4272C316.218 24.4272 315.958 24.3792 315.702 24.2832C315.454 24.1792 315.238 24.0152 315.054 23.7912C314.87 23.5592 314.742 23.2512 314.67 22.8672L315.15 22.4832C315.15 22.8032 315.082 23.1152 314.946 23.4192C314.81 23.7152 314.562 23.9592 314.202 24.1512C313.85 24.3432 313.342 24.4392 312.678 24.4392C312.39 24.4392 312.11 24.4152 311.838 24.3672C311.574 24.3192 311.33 24.2512 311.106 24.1632C310.882 24.0672 310.686 23.9552 310.518 23.8272L310.998 22.9992C311.158 23.1032 311.382 23.2032 311.67 23.2992C311.958 23.3952 312.294 23.4432 312.678 23.4432ZM316.185 24.4272L316.293 23.4432C316.709 23.4432 317.117 23.4112 317.517 23.3472C317.917 23.2832 318.309 23.1912 318.693 23.0712C319.077 22.9512 319.445 22.8072 319.797 22.6392C320.157 22.4632 320.497 22.2632 320.817 22.0392C320.609 21.8552 320.369 21.6952 320.097 21.5592C319.825 21.4232 319.525 21.3192 319.197 21.2472C318.877 21.1672 318.537 21.1272 318.177 21.1272C318.049 21.1272 317.929 21.1312 317.817 21.1392C317.705 21.1472 317.593 21.1632 317.481 21.1872C317.369 21.2032 317.241 21.2272 317.097 21.2592L316.905 20.3472C317.121 20.2832 317.337 20.2352 317.553 20.2032C317.769 20.1632 317.977 20.1432 318.177 20.1432C318.593 20.1432 318.969 20.1952 319.305 20.2992C319.641 20.3952 319.945 20.5152 320.217 20.6592C320.497 20.8032 320.757 20.9472 320.997 21.0912C321.245 21.2352 321.485 21.3592 321.717 21.4632C321.949 21.5592 322.189 21.6072 322.437 21.6072H322.689L322.773 22.4712C322.429 22.4712 322.113 22.5192 321.825 22.6152C321.537 22.7112 321.253 22.8352 320.973 22.9872C320.701 23.1312 320.413 23.2872 320.109 23.4552C319.805 23.6152 319.469 23.7712 319.101 23.9232C318.733 24.0672 318.309 24.1872 317.829 24.2832C317.357 24.3792 316.809 24.4272 316.185 24.4272ZM327.667 17.9352C327.667 17.7592 327.655 17.5472 327.631 17.2992C327.607 17.0512 327.579 16.8032 327.547 16.5552C327.515 16.3072 327.483 16.0952 327.451 15.9192L328.483 15.7992C328.507 15.9592 328.531 16.1712 328.555 16.4352C328.587 16.6912 328.611 16.9472 328.627 17.2032C328.643 17.4592 328.651 17.6712 328.651 17.8392C328.651 18.2232 328.623 18.5992 328.567 18.9672C328.519 19.3272 328.439 19.6832 328.327 20.0352C328.215 20.3792 328.067 20.7152 327.883 21.0432L327.739 21.3072C327.515 21.6832 327.239 22.0472 326.911 22.3992C326.583 22.7432 326.199 23.0712 325.759 23.3832H327.271C327.543 23.3832 327.751 23.3512 327.895 23.2872C328.039 23.2152 328.135 23.1232 328.183 23.0112C328.239 22.8992 328.267 22.7792 328.267 22.6512C328.267 22.4352 328.135 22.1672 327.871 21.8472C327.615 21.5192 327.259 21.1592 326.803 20.7672C326.347 20.3672 325.831 19.9472 325.255 19.5072C324.679 19.0672 324.071 18.6192 323.431 18.1632L323.995 17.3712C324.731 17.9152 325.379 18.4072 325.939 18.8472C326.507 19.2872 326.991 19.6912 327.391 20.0592C327.799 20.4192 328.131 20.7552 328.387 21.0672C328.651 21.3712 328.843 21.6632 328.963 21.9432C329.091 22.2152 329.155 22.4832 329.155 22.7472C329.155 22.9232 329.123 23.1072 329.059 23.2992C329.003 23.4832 328.899 23.6592 328.747 23.8272C328.603 23.9872 328.395 24.1192 328.123 24.2232C327.859 24.3192 327.515 24.3672 327.091 24.3672H324.331V23.3952C325.155 22.8032 325.807 22.2272 326.287 21.6672C326.775 21.1072 327.127 20.5232 327.343 19.9152C327.559 19.3072 327.667 18.6472 327.667 17.9352ZM323.263 16.7352L323.119 16.0872C323.327 16.0392 323.495 15.9992 323.623 15.9672C323.751 15.9352 323.895 15.8992 324.055 15.8592L323.995 16.1112C323.787 16.0472 323.587 15.9112 323.395 15.7032C323.211 15.4952 323.119 15.2592 323.119 14.9952C323.119 14.7552 323.175 14.5552 323.287 14.3952C323.407 14.2272 323.559 14.1032 323.743 14.0232C323.935 13.9432 324.139 13.9032 324.355 13.9032C324.443 13.9032 324.535 13.9112 324.631 13.9272C324.735 13.9432 324.831 13.9672 324.919 13.9992L324.823 14.5992C324.743 14.5832 324.667 14.5672 324.595 14.5512C324.523 14.5352 324.443 14.5272 324.355 14.5272C324.171 14.5272 324.027 14.5672 323.923 14.6472C323.819 14.7192 323.767 14.8232 323.767 14.9592C323.767 15.1272 323.819 15.2712 323.923 15.3912C324.035 15.5112 324.159 15.6072 324.295 15.6792C324.439 15.7432 324.555 15.7752 324.643 15.7752L324.151 15.8232C324.367 15.7672 324.567 15.7112 324.751 15.6552C324.943 15.5912 325.115 15.5312 325.267 15.4752L325.459 16.0872C325.267 16.1592 325.039 16.2352 324.775 16.3152C324.519 16.3952 324.259 16.4712 323.995 16.5432C323.731 16.6152 323.487 16.6792 323.263 16.7352ZM330.74 24.3672L330.5 15.7992H331.472L331.712 24.3672H330.74Z" fill="white"/>
<path d="M14.9402 25.5834C15.5562 25.4154 16.1602 25.2714 16.7522 25.1514C17.3362 25.0314 17.8602 24.9394 18.3242 24.8754C18.7882 24.8114 19.1322 24.7794 19.3562 24.7794C19.9483 24.7794 20.4883 24.8754 20.9763 25.0674C21.4643 25.2594 21.8923 25.5074 22.2603 25.8114C22.6362 26.1154 22.9522 26.4434 23.2082 26.7954C23.4723 27.1474 23.6683 27.4874 23.7963 27.8154C23.9323 28.1514 24.0003 28.4354 24.0003 28.6674C24.0003 28.8674 23.9562 29.0434 23.8682 29.1954C23.7802 29.3474 23.6082 29.4954 23.3523 29.6394C23.0963 29.7834 22.7203 29.9354 22.2242 30.0954C21.7682 30.2474 21.4202 30.3914 21.1802 30.5274C20.9482 30.6634 20.7882 30.8114 20.7002 30.9714C20.6202 31.1314 20.5802 31.3154 20.5802 31.5234C20.5802 31.6914 20.5322 31.8114 20.4362 31.8834C20.3482 31.9634 20.2402 32.0034 20.1122 32.0034C19.9842 32.0034 19.8642 31.9474 19.7522 31.8354C19.6482 31.7234 19.5962 31.5794 19.5962 31.4034C19.5962 31.0914 19.6522 30.8234 19.7642 30.5994C19.8762 30.3834 20.0282 30.1954 20.2202 30.0354L20.4482 30.3114C20.2162 30.2154 20.0242 30.0914 19.8722 29.9394C19.7282 29.7954 19.6202 29.6314 19.5482 29.4474C19.4762 29.2714 19.4402 29.0834 19.4402 28.8834C19.4402 28.6514 19.4842 28.4114 19.5722 28.1634C19.6522 27.9154 19.7722 27.6714 19.9322 27.4314C20.1002 27.1914 20.3042 26.9634 20.5442 26.7474C20.7842 26.5394 21.0562 26.3554 21.3602 26.1954L21.3362 26.3154C21.0242 26.0914 20.6842 25.9434 20.3162 25.8714C19.9562 25.7994 19.6362 25.7634 19.3562 25.7634C19.1322 25.7634 18.8482 25.7874 18.5042 25.8354C18.1522 25.8834 17.7802 25.9434 17.3882 26.0154C16.9962 26.0954 16.6082 26.1794 16.2242 26.2674C15.8322 26.3634 15.4802 26.4514 15.1682 26.5314L14.9402 25.5834ZM20.4242 28.9794C20.4242 29.1234 20.4522 29.2394 20.5082 29.3274C20.5642 29.4234 20.6482 29.4874 20.7602 29.5194C20.8722 29.5514 21.0122 29.5394 21.1802 29.4834C21.4682 29.3874 21.7202 29.2994 21.9362 29.2194C22.1602 29.1394 22.3442 29.0594 22.4883 28.9794C22.6403 28.9074 22.7523 28.8314 22.8242 28.7514C22.8962 28.6714 22.9322 28.5874 22.9322 28.4994C22.9322 28.4114 22.9122 28.2994 22.8722 28.1634C22.8322 28.0354 22.7723 27.8954 22.6923 27.7434C22.6123 27.5994 22.5123 27.4514 22.3923 27.2994C22.2723 27.1474 22.1323 27.0034 21.9722 26.8674L22.0682 26.8794C21.7002 27.0554 21.3922 27.2674 21.1442 27.5154C20.8962 27.7714 20.7122 28.0274 20.5922 28.2834C20.4802 28.5474 20.4242 28.7794 20.4242 28.9794ZM19.5962 31.0977L20.5802 31.2177C20.5802 31.4737 20.5962 31.6817 20.6282 31.8417C20.6682 32.0017 20.7602 32.1337 20.9042 32.2377C21.0562 32.3497 21.2922 32.4537 21.6122 32.5497C21.9322 32.6457 22.3802 32.7577 22.9562 32.8857L22.7042 33.7857C22.5042 33.7377 22.2642 33.6817 21.9842 33.6177C21.7042 33.5537 21.4482 33.5217 21.2162 33.5217C21.0882 33.5217 20.9762 33.5537 20.8802 33.6177C20.7842 33.6817 20.7082 33.7897 20.6522 33.9417C20.6042 34.1017 20.5802 34.3137 20.5802 34.5777C20.5802 34.8177 20.6002 35.0137 20.6402 35.1657C20.6802 35.3177 20.7762 35.4417 20.9282 35.5377C21.0802 35.6417 21.3242 35.7337 21.6602 35.8137C21.9962 35.8937 22.4562 35.9777 23.0402 36.0657L22.8722 36.9777C22.7282 36.9537 22.5522 36.9257 22.3442 36.8937C22.1362 36.8617 21.9282 36.8297 21.7202 36.7977C21.5202 36.7737 21.3522 36.7617 21.2162 36.7617C21.1042 36.7617 20.9962 36.7857 20.8922 36.8337C20.7962 36.8897 20.7202 36.9937 20.6642 37.1457C20.6082 37.3057 20.5802 37.5417 20.5802 37.8537C20.5802 38.2537 20.6642 38.5417 20.8322 38.7177C21.0002 38.9017 21.2562 38.9937 21.6002 38.9937C21.7842 38.9937 21.9762 38.9897 22.1762 38.9817C22.3842 38.9737 22.6122 38.9577 22.8602 38.9337C23.1162 38.9177 23.4082 38.8897 23.7362 38.8497L23.7962 39.7257C23.1482 39.7737 22.6162 39.8257 22.2002 39.8817C21.7842 39.9457 21.4562 40.0337 21.2162 40.1457C20.9842 40.2657 20.8202 40.4257 20.7242 40.6257C20.6282 40.8257 20.5802 41.0897 20.5802 41.4177C20.5802 41.5857 20.5322 41.7057 20.4362 41.7777C20.3482 41.8577 20.2402 41.8977 20.1122 41.8977C19.9842 41.8977 19.8642 41.8417 19.7522 41.7297C19.6482 41.6177 19.5962 41.4737 19.5962 41.2977C19.5962 41.0257 19.6322 40.7817 19.7042 40.5657C19.7842 40.3577 19.8882 40.1737 20.0162 40.0137C20.1522 39.8617 20.3042 39.7337 20.4722 39.6297C20.6482 39.5337 20.8322 39.4657 21.0242 39.4257L20.9522 39.6417C20.5922 39.5537 20.3122 39.4137 20.1122 39.2217C19.9202 39.0377 19.7842 38.8177 19.7042 38.5617C19.6322 38.3057 19.5962 38.0337 19.5962 37.7457C19.5962 37.3937 19.6402 37.1057 19.7282 36.8817C19.8162 36.6577 19.9482 36.4817 20.1242 36.3537C20.3082 36.2337 20.5402 36.1537 20.8202 36.1137L20.8202 36.5217C20.4762 36.3697 20.2162 36.2097 20.0402 36.0417C19.8642 35.8737 19.7442 35.6657 19.6802 35.4177C19.6242 35.1697 19.5962 34.8417 19.5962 34.4337C19.5962 34.2337 19.6282 34.0177 19.6922 33.7857C19.7562 33.5617 19.8802 33.3657 20.0642 33.1977C20.2562 33.0297 20.5402 32.9297 20.9162 32.8977L20.9882 33.2577C20.5802 33.1217 20.2762 32.9537 20.0762 32.7537C19.8842 32.5617 19.7562 32.3297 19.6922 32.0577C19.6282 31.7857 19.5962 31.4657 19.5962 31.0977ZM19.5962 40.993L20.5802 41.101C20.5802 41.517 20.6122 41.925 20.6762 42.325C20.7402 42.725 20.8322 43.117 20.9522 43.501C21.0722 43.885 21.2162 44.253 21.3842 44.605C21.5602 44.965 21.7602 45.305 21.9842 45.625C22.1682 45.417 22.3282 45.177 22.4642 44.905C22.6002 44.633 22.7042 44.333 22.7762 44.005C22.8562 43.685 22.8962 43.345 22.8962 42.985C22.8962 42.857 22.8922 42.737 22.8842 42.625C22.8762 42.513 22.8602 42.401 22.8362 42.289C22.8202 42.177 22.7962 42.049 22.7642 41.905L23.6762 41.713C23.7402 41.929 23.7882 42.145 23.8202 42.361C23.8602 42.577 23.8802 42.785 23.8802 42.985C23.8802 43.401 23.8282 43.777 23.7242 44.113C23.6282 44.449 23.5082 44.753 23.3642 45.025C23.2202 45.305 23.0762 45.565 22.9322 45.805C22.7882 46.053 22.6642 46.293 22.5602 46.525C22.4642 46.757 22.4162 46.997 22.4162 47.245L22.4162 47.497L21.5522 47.581C21.5522 47.237 21.5042 46.921 21.4082 46.633C21.3122 46.345 21.1882 46.061 21.0362 45.781C20.8922 45.509 20.7362 45.221 20.5682 44.917C20.4082 44.613 20.2522 44.277 20.1002 43.909C19.9562 43.541 19.8362 43.117 19.7402 42.637C19.6442 42.165 19.5962 41.617 19.5962 40.993ZM19.6562 52.4131C19.6562 52.1091 19.8002 51.9571 20.0882 51.9571C20.3602 51.9571 20.4962 52.1091 20.4962 52.4131L20.4962 53.9731L26.9642 53.9731L26.1482 52.7491C26.0682 52.6211 26.0442 52.5011 26.0762 52.3891C26.1162 52.2851 26.1842 52.2051 26.2802 52.1491C26.3762 52.0931 26.4802 52.0731 26.5922 52.0891C26.7042 52.1131 26.8042 52.1891 26.8922 52.3171L27.9842 53.9731C28.0482 54.0771 28.1002 54.1771 28.1402 54.2731C28.1802 54.3691 28.2002 54.4651 28.2002 54.5611C28.2002 54.6731 28.1642 54.7651 28.0922 54.8371C28.0282 54.9171 27.9242 54.9571 27.7802 54.9571L20.4962 54.9571L20.4962 56.3971C20.4962 56.7011 20.3602 56.8531 20.0882 56.8531C19.8002 56.8531 19.6562 56.7011 19.6562 56.3971L19.6562 52.4131ZM19.5482 61.0484C19.5482 60.0804 19.9202 59.3444 20.6642 58.8404C21.4082 58.3364 22.4842 58.0844 23.8922 58.0844C25.3082 58.0844 26.3842 58.3364 27.1202 58.8404C27.8562 59.3444 28.2242 60.0804 28.2242 61.0484C28.2242 62.0244 27.8562 62.7604 27.1202 63.2564C26.3922 63.7604 25.3202 64.0124 23.9042 64.0124C22.4882 64.0124 21.4082 63.7564 20.6642 63.2444C19.9202 62.7404 19.5482 62.0084 19.5482 61.0484ZM20.4002 61.0484C20.4002 61.7204 20.6842 62.2164 21.2522 62.5364C21.8282 62.8644 22.7122 63.0284 23.9042 63.0284C25.1042 63.0284 25.9802 62.8684 26.5322 62.5484C27.0922 62.2284 27.3722 61.7284 27.3722 61.0484C27.3722 60.3764 27.0922 59.8764 26.5322 59.5484C25.9722 59.2284 25.0962 59.0684 23.9042 59.0684C22.7122 59.0684 21.8282 59.2284 21.2522 59.5484C20.6842 59.8764 20.4002 60.3764 20.4002 61.0484ZM19.6442 67.9437C19.5162 67.8717 19.4402 67.7837 19.4162 67.6797C19.3922 67.5757 19.4082 67.4757 19.4642 67.3797C19.5122 67.2917 19.5882 67.2317 19.6922 67.1997C19.7962 67.1677 19.9122 67.1877 20.0402 67.2597L28.1042 71.8917C28.2322 71.9637 28.3082 72.0518 28.3322 72.1558C28.3562 72.2598 28.3402 72.3558 28.2842 72.4437C28.2362 72.5318 28.1602 72.5918 28.0562 72.6238C27.9522 72.6638 27.8362 72.6478 27.7082 72.5758L19.6442 67.9437ZM23.0402 67.0557C23.0402 66.4157 23.2682 65.9157 23.7242 65.5557C24.1802 65.1957 24.8162 65.0157 25.6322 65.0157C26.4482 65.0157 27.0802 65.1957 27.5282 65.5557C27.9842 65.9157 28.2122 66.4157 28.2122 67.0557C28.2122 67.6877 27.9842 68.1837 27.5282 68.5438C27.0802 68.9118 26.4482 69.0958 25.6322 69.0958C24.8162 69.0958 24.1802 68.9117 23.7242 68.5437C23.2682 68.1837 23.0402 67.6877 23.0402 67.0557ZM23.7482 67.0557C23.7482 67.4237 23.9042 67.7157 24.2162 67.9317C24.5362 68.1477 25.0082 68.2557 25.6322 68.2557C26.2562 68.2557 26.7242 68.1477 27.0362 67.9318C27.3482 67.7158 27.5042 67.4237 27.5042 67.0557C27.5042 66.6797 27.3482 66.3837 27.0362 66.1677C26.7242 65.9597 26.2562 65.8557 25.6322 65.8557C25.0082 65.8557 24.5362 65.9597 24.2162 66.1677C23.9042 66.3837 23.7482 66.6797 23.7482 67.0557ZM19.5482 72.7918C19.5482 72.1597 19.7762 71.6597 20.2322 71.2918C20.6882 70.9318 21.3242 70.7518 22.1402 70.7518C22.9482 70.7518 23.5802 70.9318 24.0362 71.2918C24.4922 71.6597 24.7202 72.1597 24.7202 72.7918C24.7202 73.4318 24.4922 73.9318 24.0362 74.2918C23.5802 74.6517 22.9482 74.8317 22.1402 74.8317C21.3242 74.8317 20.6882 74.6517 20.2322 74.2918C19.7762 73.9318 19.5482 73.4318 19.5482 72.7918ZM20.2562 72.7918C20.2562 73.1678 20.4122 73.4597 20.7242 73.6677C21.0442 73.8837 21.5162 73.9917 22.1402 73.9917C22.7642 73.9917 23.2322 73.8837 23.5442 73.6677C23.8562 73.4598 24.0122 73.1678 24.0122 72.7918C24.0122 72.4238 23.8562 72.1318 23.5442 71.9158C23.2322 71.7077 22.7642 71.6037 22.1402 71.6037C21.5082 71.6037 21.0362 71.7077 20.7242 71.9158C20.4122 72.1318 20.2562 72.4238 20.2562 72.7918Z" fill="black"/>
<path d="M380 51.33V47.9667C378.794 47.9667 377.746 47.2962 377.211 46.3047H303.927L283.504 64.2652L303.927 82.2258H377.155C377.668 81.1723 378.749 80.4455 380 80.4455V77.0822C378.248 77.0822 376.834 75.6624 376.834 73.916C376.834 72.1695 378.253 70.7498 380 70.7498V67.3864C378.248 67.3864 376.834 65.9667 376.834 64.2202C376.834 62.4737 378.253 61.054 380 61.054V57.6906C378.248 57.6906 376.834 56.2709 376.834 54.5244C376.834 52.7779 378.253 51.3582 380 51.3582V51.33Z" fill="url(#paint0_linear_815_13637)"/>
<path d="M331.249 68.3256C330.817 68.3256 330.433 68.2656 330.097 68.1456C329.769 68.0176 329.505 67.8056 329.305 67.5096C329.113 67.2056 329.005 66.7856 328.981 66.2496L328.789 62.0736L329.761 62.0736L329.953 66.0336C329.977 66.4096 330.045 66.6936 330.157 66.8856C330.269 67.0696 330.425 67.1936 330.625 67.2576C330.833 67.3136 331.081 67.3416 331.369 67.3416C331.537 67.3416 331.657 67.3896 331.729 67.4856C331.809 67.5736 331.849 67.6816 331.849 67.8096C331.849 67.9376 331.793 68.0576 331.681 68.1696C331.569 68.2736 331.425 68.3256 331.249 68.3256ZM329.437 67.0056C328.981 67.1496 328.537 67.2216 328.105 67.2216C327.673 67.2216 327.281 67.1576 326.929 67.0296C326.577 66.9016 326.297 66.7176 326.089 66.4776C325.881 66.2296 325.777 65.9336 325.777 65.5896C325.777 65.2536 325.861 64.9376 326.029 64.6416C326.205 64.3456 326.441 64.0816 326.737 63.8496C327.041 63.6176 327.389 63.4256 327.781 63.2736C328.181 63.1136 328.605 63.0056 329.053 62.9496L329.221 63.9576C328.821 63.9736 328.465 64.0296 328.153 64.1256C327.849 64.2136 327.589 64.3296 327.373 64.4736C327.165 64.6176 327.005 64.7736 326.893 64.9416C326.781 65.1096 326.725 65.2736 326.725 65.4336C326.725 65.6096 326.789 65.7536 326.917 65.8656C327.045 65.9776 327.209 66.0656 327.409 66.1296C327.609 66.1856 327.829 66.2216 328.069 66.2376C328.309 66.2456 328.541 66.2376 328.765 66.2136C328.989 66.1816 329.181 66.1376 329.341 66.0816L329.437 67.0056ZM329.185 60.6936C329.017 60.6936 328.873 60.6376 328.753 60.5256C328.641 60.4056 328.585 60.2656 328.585 60.1056C328.585 59.9456 328.641 59.8056 328.753 59.6856C328.873 59.5656 329.017 59.5056 329.185 59.5056C329.345 59.5056 329.481 59.5656 329.593 59.6856C329.713 59.8056 329.773 59.9456 329.773 60.1056C329.773 60.2656 329.713 60.4056 329.593 60.5256C329.481 60.6376 329.345 60.6936 329.185 60.6936ZM327.541 60.6936C327.373 60.6936 327.229 60.6376 327.109 60.5256C326.997 60.4056 326.941 60.2656 326.941 60.1056C326.941 59.9456 326.997 59.8056 327.109 59.6856C327.229 59.5656 327.373 59.5056 327.541 59.5056C327.701 59.5056 327.837 59.5656 327.949 59.6856C328.069 59.8056 328.129 59.9456 328.129 60.1056C328.129 60.2656 328.069 60.4056 327.949 60.5256C327.837 60.6376 327.701 60.6936 327.541 60.6936ZM339.473 68.3256C339.265 68.3256 339.001 68.3056 338.681 68.2656C338.369 68.2176 338.049 68.1376 337.721 68.0256C337.401 67.9136 337.129 67.7576 336.905 67.5576L337.889 67.0656C338.169 67.1776 338.457 67.2536 338.753 67.2936C339.057 67.3256 339.337 67.3416 339.593 67.3416C339.761 67.3416 339.881 67.3896 339.953 67.4856C340.033 67.5736 340.073 67.6816 340.073 67.8096C340.073 67.9376 340.017 68.0576 339.905 68.1696C339.793 68.2736 339.649 68.3256 339.473 68.3256ZM330.953 68.3256L331.073 67.3416L333.581 67.3416C334.277 67.3416 334.877 67.3136 335.381 67.2576C335.893 67.1936 336.313 67.1016 336.641 66.9816C336.969 66.8616 337.213 66.7096 337.373 66.5256C337.533 66.3336 337.613 66.1096 337.613 65.8536C337.613 65.7176 337.569 65.5696 337.481 65.4096C337.393 65.2496 337.257 65.1136 337.073 65.0016C336.889 64.8816 336.645 64.8216 336.341 64.8216C335.957 64.8216 335.573 64.9216 335.189 65.1216C334.813 65.3216 334.453 65.5736 334.109 65.8776C333.773 66.1736 333.473 66.4776 333.209 66.7896C332.945 67.1016 332.733 67.3736 332.573 67.6056L331.529 67.5696C331.785 67.1536 332.089 66.7296 332.441 66.2976C332.801 65.8576 333.193 65.4536 333.617 65.0856C334.049 64.7096 334.501 64.4096 334.973 64.1856C335.445 63.9536 335.925 63.8376 336.413 63.8376C336.853 63.8376 337.229 63.9296 337.541 64.1136C337.861 64.2896 338.105 64.5296 338.273 64.8336C338.449 65.1376 338.537 65.4816 338.537 65.8656C338.537 66.2416 338.401 66.6216 338.129 67.0056C337.857 67.3816 337.389 67.6776 336.725 67.8936C336.389 68.0056 336.005 68.0936 335.573 68.1576C335.141 68.2216 334.649 68.2656 334.097 68.2896C333.545 68.3136 332.917 68.3256 332.213 68.3256L330.953 68.3256ZM332.093 67.1376L331.853 59.6976L332.825 59.6976L333.065 66.2976L332.093 67.1376ZM339.173 68.3256L339.293 67.3416C339.493 67.3416 339.697 67.3416 339.905 67.3416C340.121 67.3336 340.333 67.3216 340.541 67.3056C340.749 67.2896 340.949 67.2696 341.141 67.2456C341.333 67.2216 341.505 67.1856 341.657 67.1376C341.937 67.0496 342.193 66.9336 342.425 66.7896C342.665 66.6456 342.857 66.4696 343.001 66.2616C343.153 66.0536 343.229 65.8136 343.229 65.5416C343.229 65.3576 343.185 65.1696 343.097 64.9776C343.009 64.7776 342.889 64.6096 342.737 64.4736C342.585 64.3376 342.409 64.2696 342.209 64.2696C342.017 64.2696 341.837 64.3336 341.669 64.4616C341.509 64.5896 341.377 64.7576 341.273 64.9656C341.177 65.1656 341.129 65.3736 341.129 65.5896C341.129 65.8456 341.193 66.0776 341.321 66.2856C341.457 66.4856 341.621 66.6576 341.813 66.8016C342.005 66.9456 342.197 67.0616 342.389 67.1496L341.249 67.4856C341.121 67.3896 340.969 67.2576 340.793 67.0896C340.625 66.9136 340.473 66.6976 340.337 66.4416C340.209 66.1856 340.145 65.8936 340.145 65.5656C340.145 65.2456 340.201 64.9496 340.313 64.6776C340.433 64.3976 340.589 64.1536 340.781 63.9456C340.981 63.7376 341.205 63.5776 341.453 63.4656C341.709 63.3456 341.973 63.2856 342.245 63.2856C342.637 63.2856 342.981 63.3936 343.277 63.6096C343.573 63.8256 343.801 64.1016 343.961 64.4376C344.129 64.7656 344.213 65.1096 344.213 65.4696C344.213 65.8136 344.149 66.1256 344.021 66.4056C343.893 66.6776 343.717 66.9216 343.493 67.1376C343.277 67.3536 343.021 67.5376 342.725 67.6896C342.437 67.8416 342.129 67.9656 341.801 68.0616C341.617 68.1176 341.417 68.1616 341.201 68.1936C340.993 68.2256 340.773 68.2496 340.541 68.2656C340.309 68.2896 340.077 68.3056 339.845 68.3136C339.613 68.3216 339.389 68.3256 339.173 68.3256ZM345.113 68.3256C344.713 68.3256 344.297 68.3016 343.865 68.2536C343.441 68.1976 343.037 68.1296 342.653 68.0496C342.277 67.9616 341.965 67.8656 341.717 67.7616L342.545 67.1616C342.785 67.1936 343.069 67.2256 343.397 67.2576C343.725 67.2816 344.053 67.3016 344.381 67.3176C344.709 67.3336 344.993 67.3416 345.233 67.3416C345.401 67.3416 345.521 67.3896 345.593 67.4856C345.673 67.5736 345.713 67.6816 345.713 67.8096C345.713 67.9376 345.657 68.0576 345.545 68.1696C345.433 68.2736 345.289 68.3256 345.113 68.3256ZM342.977 62.0496C342.809 62.0496 342.665 61.9936 342.545 61.8816C342.433 61.7616 342.377 61.6216 342.377 61.4616C342.377 61.3016 342.433 61.1616 342.545 61.0416C342.665 60.9216 342.809 60.8616 342.977 60.8616C343.137 60.8616 343.273 60.9216 343.385 61.0416C343.505 61.1616 343.565 61.3016 343.565 61.4616C343.565 61.6216 343.505 61.7616 343.385 61.8816C343.273 61.9936 343.137 62.0496 342.977 62.0496ZM341.333 62.0496C341.165 62.0496 341.021 61.9936 340.901 61.8816C340.789 61.7616 340.733 61.6216 340.733 61.4616C340.733 61.3016 340.789 61.1616 340.901 61.0416C341.021 60.9216 341.165 60.8616 341.333 60.8616C341.493 60.8616 341.629 60.9216 341.741 61.0416C341.861 61.1616 341.921 61.3016 341.921 61.4616C341.921 61.6216 341.861 61.7616 341.741 61.8816C341.629 61.9936 341.493 62.0496 341.333 62.0496ZM344.814 68.3256L344.934 67.3416C345.326 67.3416 345.638 67.3176 345.87 67.2696C346.102 67.2216 346.27 67.1256 346.374 66.9816C346.478 66.8296 346.53 66.6056 346.53 66.3096C346.53 66.1096 346.498 65.8736 346.434 65.6016C346.37 65.3216 346.286 65.0256 346.182 64.7136C346.078 64.4016 345.966 64.0936 345.846 63.7896L346.818 63.4296C346.922 63.6856 347.018 63.9776 347.106 64.3056C347.202 64.6336 347.282 64.9576 347.346 65.2776C347.41 65.5976 347.442 65.8776 347.442 66.1176C347.442 66.4376 347.406 66.7216 347.334 66.9696C347.27 67.2096 347.17 67.4176 347.034 67.5936C346.898 67.7616 346.722 67.9016 346.506 68.0136C346.298 68.1176 346.054 68.1976 345.774 68.2536C345.494 68.3016 345.174 68.3256 344.814 68.3256ZM346.35 62.1816C346.182 62.1816 346.038 62.1256 345.918 62.0136C345.806 61.8936 345.75 61.7536 345.75 61.5936C345.75 61.4336 345.806 61.2936 345.918 61.1736C346.038 61.0536 346.182 60.9936 346.35 60.9936C346.51 60.9936 346.646 61.0536 346.758 61.1736C346.878 61.2936 346.938 61.4336 346.938 61.5936C346.938 61.7536 346.878 61.8936 346.758 62.0136C346.646 62.1256 346.51 62.1816 346.35 62.1816ZM354.311 68.3736C353.847 68.3736 353.387 68.3056 352.931 68.1696C352.483 68.0336 352.079 67.8216 351.719 67.5336C351.599 67.4536 351.527 67.3576 351.503 67.2456C351.487 67.1256 351.507 67.0176 351.563 66.9216C351.619 66.8256 351.699 66.7616 351.803 66.7296C351.915 66.6976 352.039 66.7256 352.175 66.8136C352.807 67.2696 353.515 67.4976 354.299 67.4976C354.883 67.4976 355.343 67.3336 355.679 67.0056C356.015 66.6776 356.183 66.2456 356.183 65.7096C356.183 65.1576 356.023 64.7056 355.703 64.3536C355.383 64.0016 354.943 63.8256 354.383 63.8256C354.039 63.8256 353.719 63.8896 353.423 64.0176C353.135 64.1456 352.875 64.3496 352.643 64.6296C352.587 64.6936 352.519 64.7496 352.439 64.7976C352.367 64.8376 352.283 64.8576 352.187 64.8576C351.899 64.8576 351.755 64.7176 351.755 64.4376L351.755 60.2616C351.755 59.9576 351.907 59.8056 352.211 59.8056L356.291 59.8056C356.595 59.8056 356.747 59.9456 356.747 60.2256C356.747 60.5056 356.595 60.6456 356.291 60.6456L352.727 60.6456L352.727 63.6696C353.191 63.2056 353.803 62.9736 354.563 62.9736C355.091 62.9736 355.551 63.0856 355.943 63.3096C356.335 63.5336 356.635 63.8496 356.843 64.2576C357.059 64.6576 357.167 65.1256 357.167 65.6616C357.167 66.1896 357.051 66.6576 356.819 67.0656C356.587 67.4736 356.255 67.7936 355.823 68.0256C355.399 68.2576 354.895 68.3736 354.311 68.3736ZM361.026 68.3736C360.058 68.3736 359.322 68.0016 358.818 67.2576C358.314 66.5136 358.062 65.4376 358.062 64.0296C358.062 62.6136 358.314 61.5376 358.818 60.8016C359.322 60.0656 360.058 59.6976 361.026 59.6976C362.002 59.6976 362.738 60.0656 363.234 60.8016C363.738 61.5296 363.99 62.6016 363.99 64.0176C363.99 65.4336 363.734 66.5136 363.222 67.2576C362.718 68.0016 361.986 68.3736 361.026 68.3736ZM361.026 67.5216C361.698 67.5216 362.194 67.2376 362.514 66.6696C362.842 66.0936 363.006 65.2096 363.006 64.0176C363.006 62.8176 362.846 61.9416 362.526 61.3896C362.206 60.8296 361.706 60.5496 361.026 60.5496C360.354 60.5496 359.854 60.8296 359.526 61.3896C359.206 61.9496 359.046 62.8256 359.046 64.0176C359.046 65.2096 359.206 66.0936 359.526 66.6696C359.854 67.2376 360.354 67.5216 361.026 67.5216Z" fill="white"/>
<defs>
<linearGradient id="paint0_linear_815_13637" x1="244.662" y1="49.4013" x2="318.411" y2="139.125" gradientUnits="userSpaceOnUse">
<stop offset="0.121278" stop-color="#8727FF"/>
<stop offset="0.3125" stop-color="#00F7FF"/>
<stop offset="0.584491" stop-color="#9D44FD"/>
<stop offset="1" stop-color="#8727FF"/>
</linearGradient>
</defs>
</svg>
