<svg width="311" height="243" viewBox="0 0 311 243" fill="none" xmlns="http://www.w3.org/2000/svg">
<g filter="url(#filter0_f_815_5417)">
<ellipse cx="160.55" cy="228.96" rx="79.4858" ry="3.80169" fill="#E3E3E3" fill-opacity="0.2"/>
</g>
<rect x="-0.493228" y="94.3529" width="115.262" height="145.238" rx="15.1583" transform="rotate(-37.5462 -0.493228 94.3529)" fill="#414141" stroke="#C1C1C1" stroke-width="2.11512" stroke-dasharray="7.05 7.05"/>
<rect x="209.975" y="219.509" width="115.262" height="145.238" rx="15.1583" transform="rotate(-135 209.975 219.509)" fill="#414141" stroke="#C1C1C1" stroke-width="2.11512" stroke-dasharray="7.05 7.05"/>
<rect x="99.6591" y="1.94244" width="117.036" height="145.238" rx="15.1583" fill="#414141" stroke="#C1C1C1" stroke-width="2.11512" stroke-dasharray="7.05 7.05"/>
<path d="M140.874 23.584L178.241 60.951" stroke="#666666" stroke-width="3" stroke-linecap="round"/>
<path d="M178.241 23.584L140.874 60.951" stroke="#666666" stroke-width="3" stroke-linecap="round"/>
<path fill-rule="evenodd" clip-rule="evenodd" d="M181.098 142.988C166.7 157.384 144.409 159.008 128.226 147.893C126.158 146.448 124.19 144.824 122.354 142.988C121.409 142.046 120.518 141.074 119.679 140.051C118 138.007 116.53 135.828 115.325 133.576C113.203 129.772 111.76 125.737 110.972 121.565C108.43 108.482 112.231 94.3998 122.354 84.2813C132.502 74.1326 146.586 70.3562 159.671 72.8738C163.841 73.6858 167.88 75.1287 171.684 77.2267C173.94 78.4583 176.089 79.9284 178.136 81.6068C179.157 82.4429 180.129 83.3365 181.071 84.2813C182.91 86.1166 184.558 88.0818 185.977 90.1526C197.097 106.33 195.469 128.619 181.098 142.988Z" fill="white" fill-opacity="0.1"/>
<path fill-rule="evenodd" clip-rule="evenodd" d="M177.069 140.152C162.089 155.135 137.814 155.132 122.831 140.152C107.869 125.19 107.869 100.911 122.851 85.9314C137.814 70.9685 162.09 70.9685 177.052 85.9314C192.032 100.911 192.032 125.19 177.069 140.152ZM184.757 78.2352C165.529 59.0075 134.371 59.0075 115.144 78.2352C95.9188 97.4601 95.9021 128.637 115.127 147.865C132.626 165.359 160.055 166.937 179.346 152.573C181.231 151.168 183.045 149.593 184.776 147.865C186.505 146.134 188.079 144.32 189.482 142.435C203.845 123.141 202.253 95.7319 184.757 78.2352Z" fill="#E3E4E9"/>
<path fill-rule="evenodd" clip-rule="evenodd" d="M260.426 220.345L259.619 221.152C254.279 226.495 245.533 226.495 240.19 221.152L190.88 171.842L211.116 151.605L260.426 200.916C265.769 206.259 265.769 215.002 260.426 220.345Z" fill="#EFEFEF"/>
<path fill-rule="evenodd" clip-rule="evenodd" d="M190.544 140.928L205.116 155.499L194.771 165.841L180.202 151.27C182.125 149.836 183.974 148.229 185.743 146.466C187.507 144.702 189.114 142.85 190.544 140.928Z" fill="#E3E4E9"/>
<path fill-rule="evenodd" clip-rule="evenodd" d="M259.688 200.308L239.581 220.413L235.961 216.79L256.066 196.686L259.688 200.308Z" fill="#C1C1C1"/>
<path fill-rule="evenodd" clip-rule="evenodd" d="M212.234 152.299L191.576 172.958L188.507 169.889L209.165 149.23L212.234 152.299Z" fill="#C1C1C1"/>
<path fill-rule="evenodd" clip-rule="evenodd" d="M167.153 80.7766L116.491 131.436C114.583 128.016 113.286 124.388 112.58 120.637L156.354 76.8633C160.102 77.596 163.733 78.8905 167.153 80.7766Z" fill="white" fill-opacity="0.5"/>
<path fill-rule="evenodd" clip-rule="evenodd" d="M183.761 92.818L128.991 144.486C127.029 143.195 125.163 141.741 123.422 140.099C122.525 139.253 121.678 138.386 120.885 137.47L176.322 85.168C177.293 85.9189 178.215 86.7185 179.108 87.564C180.849 89.2064 182.416 90.965 183.761 92.818Z" fill="white" fill-opacity="0.5"/>
<defs>
<filter id="filter0_f_815_5417" x="71.0637" y="215.158" width="178.972" height="27.6034" filterUnits="userSpaceOnUse" color-interpolation-filters="sRGB">
<feFlood flood-opacity="0" result="BackgroundImageFix"/>
<feBlend mode="normal" in="SourceGraphic" in2="BackgroundImageFix" result="shape"/>
<feGaussianBlur stdDeviation="5" result="effect1_foregroundBlur_815_5417"/>
</filter>
</defs>
</svg>
