<svg width="41" height="13" viewBox="0 0 41 13" fill="none" xmlns="http://www.w3.org/2000/svg">
<g clip-path="url(#clip0_2778_2299)">
<path d="M40.9997 0.148438H0.338867V12.1484H40.9997V0.148438Z" fill="#F7E224"/>
<path d="M5.57904 3.72384C5.77591 3.64142 6.00712 3.60938 6.22231 3.60938C6.65039 3.60938 7.01437 3.74215 7.27763 4.00541C7.55691 4.26867 7.70571 4.64867 7.75607 5.1088C7.78812 5.43845 7.75607 5.80014 7.65764 6.18015C7.57523 6.56016 7.44245 6.8898 7.26161 7.16909C7.06473 7.51475 6.79919 7.77801 6.46954 7.96115C6.20628 8.12597 5.90869 8.20838 5.57904 8.24043V7.58114C5.6935 7.54909 5.81025 7.49873 5.90869 7.44837C6.12387 7.31559 6.30472 7.11872 6.45352 6.85546C6.60232 6.59221 6.71678 6.31063 6.79919 5.9993C6.8816 5.68797 6.89762 5.39037 6.8816 5.1088C6.84955 4.81121 6.74882 4.58229 6.584 4.39915C6.40316 4.2183 6.17195 4.13589 5.90869 4.13589C5.79423 4.13589 5.67748 4.15192 5.57904 4.18625V3.72384ZM2.6626 9.82227L3.80033 4.82723C3.83238 4.63036 3.86672 4.44722 3.89877 4.25035C3.91479 4.05348 3.93082 3.87034 3.94913 3.67347H4.74119L4.67481 4.34879C4.92204 4.10155 5.16927 3.90468 5.41651 3.78793C5.46687 3.75588 5.53097 3.73757 5.58133 3.72155V4.18396C5.46687 4.21601 5.35012 4.2824 5.23566 4.34879C5.02048 4.49759 4.83963 4.71048 4.70915 4.97603C4.56035 5.23929 4.44589 5.55291 4.36348 5.89858C4.28106 6.26027 4.26504 6.54184 4.28106 6.77305C4.29709 7.03631 4.39552 7.23547 4.56035 7.4003C4.72517 7.54909 4.94035 7.6315 5.20361 7.6315C5.33639 7.6315 5.46687 7.61548 5.58362 7.58114V8.24043H5.43482C5.1212 8.24043 4.87397 8.17405 4.64276 8.05959C4.42757 7.94513 4.2307 7.76199 4.06588 7.53307L3.53936 9.82456H2.66489L2.6626 9.82227Z" fill="#0054A4"/>
<path d="M26.7247 4.38304C26.6262 4.38304 26.5438 4.39907 26.4454 4.41509V3.77183C26.4957 3.7558 26.5278 3.73978 26.5598 3.72146C26.791 3.607 27.0543 3.55664 27.3336 3.55664C27.7617 3.55664 28.1073 3.68941 28.3546 3.93665C28.6018 4.18388 28.7506 4.54558 28.7826 5.02402C28.8651 5.91452 28.7002 6.67225 28.2722 7.28117C27.8601 7.90841 27.2992 8.21975 26.6079 8.21975C26.5575 8.21975 26.4934 8.20372 26.4431 8.20372V7.34756C26.5415 7.33154 26.64 7.28117 26.7224 7.21479C26.8712 7.10033 26.9856 6.9355 27.1024 6.70429C27.2168 6.45706 27.3176 6.17778 27.3817 5.88018C27.4458 5.58259 27.4641 5.33535 27.448 5.12246C27.432 4.87522 27.3496 4.69437 27.2329 4.57763C27.1001 4.44485 26.9353 4.38075 26.7224 4.38075L26.7247 4.38304ZM26.4454 4.41509C26.1821 4.4975 25.9509 4.71269 25.7701 5.02402C25.5068 5.46812 25.4084 5.96259 25.4564 6.50742C25.4885 6.78671 25.5549 7.00189 25.7037 7.15069C25.8364 7.29949 26.0173 7.3819 26.2485 7.3819C26.3149 7.3819 26.3813 7.36587 26.4454 7.34985V8.20601C26.1981 8.18999 25.983 8.1236 25.8021 8.02516C25.5709 7.9107 25.39 7.71154 25.2573 7.46431L24.7308 9.82219H23.3618L24.4171 5.04233C24.5499 4.4334 24.6323 3.97099 24.6644 3.67339H25.9005L25.8685 4.21822C26.0654 4.03737 26.2485 3.88857 26.4454 3.77411V4.41738V4.41509Z" fill="#0054A4"/>
<path d="M31.8706 6.01533C31.8385 5.9993 31.8042 5.9993 31.7721 5.9993H31.6233C31.4081 5.9993 31.2113 6.01533 31.0464 6.06569V5.34001C31.2273 5.32399 31.4425 5.32399 31.6554 5.32399H32.0354C32.0674 5.15917 32.1018 5.04471 32.1018 4.94398C32.1178 4.86157 32.1178 4.79518 32.1178 4.7288C32.1018 4.59602 32.0514 4.49759 31.953 4.4312C31.8706 4.36481 31.7378 4.33276 31.573 4.33276C31.3761 4.33276 31.2273 4.38313 31.1289 4.46554C31.0968 4.49759 31.0625 4.5159 31.0464 4.56397V3.64142C31.2113 3.60938 31.3921 3.60938 31.573 3.60938C32.1498 3.60938 32.5779 3.69179 32.8915 3.88866C33.1891 4.08553 33.354 4.3671 33.386 4.74482C33.402 4.85928 33.402 4.97603 33.386 5.10651C33.37 5.22097 33.3356 5.36977 33.3036 5.51857L32.9579 7.03402C32.9076 7.21487 32.8915 7.39572 32.8595 7.59488C32.8435 7.79175 32.8435 7.97488 32.8435 8.17176H31.5913V7.85814C31.5913 7.74368 31.6073 7.64295 31.6073 7.52849C31.4425 7.7597 31.2456 7.94055 31.0464 8.03898V7.34764C31.1792 7.28126 31.3097 7.18282 31.4425 7.03402C31.6577 6.77076 31.8042 6.42509 31.8706 6.01304V6.01533ZM31.0464 6.06569C30.8656 6.11605 30.7168 6.18015 30.584 6.28087C30.3047 6.46172 30.188 6.69293 30.2223 6.95619C30.2223 7.10499 30.2727 7.21945 30.3711 7.30186C30.4535 7.38427 30.568 7.41632 30.7168 7.41632C30.8313 7.41632 30.948 7.40029 31.0464 7.34993V8.04127L31.0144 8.0573C30.7992 8.17176 30.5703 8.23814 30.2887 8.23814C29.8927 8.23814 29.5791 8.12368 29.3318 7.9085C29.0846 7.69331 28.9518 7.41403 28.9198 7.05234C28.8694 6.49148 29.0846 6.0634 29.547 5.7658C29.9087 5.53459 30.4032 5.3858 31.0464 5.33772V6.0634V6.06569ZM31.0464 3.64371V4.56626C30.9801 4.64867 30.948 4.76313 30.9137 4.89591H29.6111C29.6432 4.48385 29.8423 4.17023 30.172 3.93902C30.4192 3.79022 30.6985 3.69179 31.0464 3.64142V3.64371Z" fill="#0054A4"/>
<path d="M33.6157 9.8074L34.7031 8.15918L33.911 3.64258H35.264L35.6417 6.74216L37.3906 3.64258H38.6749L35.8729 8.34002L35.0648 9.8074H33.6157Z" fill="#0054A4"/>
<path d="M10.3407 4.10504C10.2262 4.10504 10.1255 4.12107 10.011 4.1554V3.57852C10.1438 3.5625 10.2903 3.5625 10.4391 3.5625C10.9656 3.5625 11.3777 3.69527 11.6913 3.94251C12.0209 4.20577 12.1858 4.56975 12.2361 5.02988C12.2682 5.39157 12.2361 5.78761 12.1217 6.19966C12.0232 6.61172 11.8744 6.97341 11.6776 7.27101C11.4463 7.61668 11.1831 7.86391 10.8534 8.01271C10.6222 8.12717 10.3429 8.19356 10.0133 8.2279V7.65102C10.1461 7.61897 10.2766 7.5686 10.375 7.50222C10.5719 7.38776 10.7367 7.20462 10.8855 6.95739C11.0503 6.67811 11.1648 6.36448 11.2472 6.01881C11.3296 5.65712 11.3616 5.35952 11.3456 5.09627C11.3136 4.7506 11.2128 4.50336 11.048 4.35456C10.8832 4.18974 10.652 4.10733 10.3384 4.10733L10.3407 4.10504ZM10.011 4.1554C9.89655 4.18745 9.76378 4.23781 9.64932 4.3042C9.45245 4.453 9.26931 4.64987 9.1228 4.91313C8.974 5.16036 8.85954 5.45796 8.77713 5.81965C8.69472 6.18135 8.6787 6.49497 8.69472 6.75823C8.71075 7.05582 8.8275 7.26872 8.99232 7.43354C9.17316 7.59836 9.40437 7.68078 9.70197 7.68078C9.81643 7.68078 9.91715 7.66475 10.0156 7.64873V8.22561C9.90113 8.22561 9.76836 8.24163 9.63558 8.24163C9.10907 8.24163 8.6787 8.10886 8.36737 7.82957C8.03772 7.56632 7.85687 7.18631 7.82254 6.70786C7.79049 6.31183 7.82253 5.9158 7.95531 5.48772C8.06977 5.05964 8.23459 4.69566 8.4658 4.38432C8.68099 4.10504 8.94424 3.90588 9.27389 3.75708C9.48907 3.67467 9.75233 3.60828 10.0156 3.57624V4.15311L10.011 4.1554Z" fill="#0054A4"/>
<path d="M13.1412 6.69184C13.1092 6.77425 13.0908 6.84064 13.0908 6.90703C13.0748 6.97341 13.0748 7.02149 13.0908 7.07185C13.1069 7.25269 13.1733 7.38547 13.306 7.46788C13.4388 7.56632 13.6196 7.60065 13.8829 7.60065C14.2286 7.60065 14.4918 7.53427 14.691 7.40378C14.8879 7.25498 14.9703 7.07414 14.9543 6.85895C14.9543 6.72618 14.8879 6.61172 14.7734 6.51328C14.6589 6.41485 14.4277 6.28207 14.0638 6.11725C13.6013 5.90207 13.2717 5.70519 13.0908 5.52435C12.894 5.35952 12.7932 5.14434 12.7772 4.91542C12.7452 4.51939 12.8917 4.20577 13.2053 3.94251C13.5349 3.69527 13.9791 3.5625 14.5399 3.5625C15.0504 3.5625 15.4304 3.64491 15.6776 3.79371C15.9409 3.94251 16.0737 4.1554 16.1057 4.46902V4.63385C16.1057 4.68421 16.1057 4.76662 16.0897 4.88108H15.2816V4.63385C15.2656 4.46902 15.1992 4.33625 15.0664 4.25384C14.952 4.17143 14.7688 4.12107 14.5216 4.12107C14.2423 4.12107 14.0271 4.18745 13.8783 4.30191C13.7135 4.41637 13.6471 4.5812 13.6631 4.78036C13.6792 4.89482 13.7295 5.01157 13.844 5.09398C13.9424 5.19241 14.1897 5.32519 14.5697 5.50603C15.0962 5.75327 15.4602 5.96845 15.609 6.13327C15.7578 6.2981 15.8562 6.51328 15.8722 6.76052C15.9043 7.17257 15.7395 7.53427 15.3457 7.81584C14.9657 8.09512 14.4552 8.24392 13.8303 8.24392C13.3358 8.24392 12.9558 8.14548 12.6605 7.98066C12.3812 7.79981 12.2324 7.55258 12.1981 7.22294C12.182 7.15655 12.182 7.07414 12.1981 6.9757C12.2141 6.89329 12.2301 6.79485 12.2484 6.69642H13.1389L13.1412 6.69184Z" fill="#0054A4"/>
<path d="M18.5654 8.17472C18.4006 8.19075 18.2518 8.20677 18.1213 8.22509C17.9886 8.22509 17.8581 8.24111 17.7413 8.24111C17.4117 8.24111 17.1644 8.19075 17.0156 8.07629C16.8508 7.97785 16.7684 7.79701 16.7524 7.54977C16.7364 7.46736 16.7524 7.31856 16.7684 7.13772C16.7844 6.94084 16.8348 6.74168 16.8668 6.52879L17.3773 4.28766H16.5532L16.702 3.71078H17.5101L17.7413 2.68979L18.6158 2.47461L18.3525 3.71078H19.3254L19.1927 4.28766H18.2198L17.7253 6.62722C17.6749 6.80807 17.6429 6.94084 17.6429 7.02326C17.6269 7.12169 17.6108 7.18808 17.6269 7.23844C17.6269 7.37121 17.6772 7.45363 17.7596 7.5017C17.842 7.56809 17.9908 7.60013 18.1877 7.60013C18.2541 7.60013 18.3525 7.58411 18.451 7.56809C18.5334 7.56809 18.6318 7.53604 18.7142 7.51772L18.5654 8.17701V8.17472Z" fill="#0054A4"/>
<path d="M21.4171 5.40672H22.5388C22.5548 5.25792 22.5708 5.14346 22.5708 5.06105C22.5869 4.97863 22.5869 4.91225 22.5708 4.84586C22.5548 4.59863 22.4564 4.41778 22.2916 4.28501C22.1107 4.15223 21.8795 4.06982 21.5819 4.06982C21.5316 4.06982 21.4675 4.08585 21.4171 4.08585V3.54102H21.5979C22.1748 3.54102 22.6189 3.65548 22.9165 3.87066C23.1958 4.08585 23.3789 4.43152 23.411 4.90996C23.427 5.07478 23.427 5.25563 23.411 5.43648C23.411 5.61732 23.3789 5.81648 23.3286 6.01335H21.4171V5.40443V5.40672ZM21.4171 8.2087V7.53338C21.5155 7.50134 21.614 7.45097 21.6964 7.40061C21.8932 7.26784 22.042 7.07097 22.1245 6.82373H23.0974C22.9829 7.26784 22.7357 7.6158 22.3557 7.86303C22.0924 8.04388 21.7788 8.16063 21.4171 8.2087ZM20.2633 5.40672H21.4171V6.01564H20.1145C20.0642 6.14842 20.0481 6.26288 20.0321 6.39565C20.0161 6.51011 20.0161 6.62686 20.0161 6.7253C20.0481 7.00458 20.1489 7.21976 20.3137 7.36856C20.4945 7.51736 20.7258 7.59977 21.0394 7.59977C21.1721 7.59977 21.3026 7.58375 21.4194 7.53338V8.2087C21.2706 8.22472 21.1058 8.24075 20.9409 8.24075C20.4144 8.24075 20.0024 8.10797 19.6887 7.86074C19.3911 7.61351 19.2103 7.25181 19.1783 6.78939C19.1462 6.44372 19.1783 6.04769 19.2927 5.60359C19.3911 5.17551 19.556 4.7955 19.7368 4.48188C19.9337 4.18428 20.1992 3.93705 20.5106 3.79054C20.7738 3.64174 21.0714 3.57535 21.4171 3.5433V4.08813C21.1538 4.12018 20.9226 4.22091 20.7418 4.41778C20.5106 4.63297 20.3457 4.96261 20.2633 5.40672Z" fill="#0054A4"/>
</g>
<defs>
<clipPath id="clip0_2778_2299">
<rect width="40.6608" height="12" fill="white" transform="translate(0.339355 0.148438)"/>
</clipPath>
</defs>
</svg>
