<svg width="31" height="13" viewBox="0 0 31 13" fill="none" xmlns="http://www.w3.org/2000/svg">
<path d="M26.3067 12.1484H4.7103C2.62959 12.1484 0.961426 10.4623 0.961426 8.39956V3.89732C0.961426 1.8166 2.64752 0.148438 4.7103 0.148438H26.3067C28.3874 0.148438 30.0556 1.83454 30.0556 3.89732V8.39956C30.0556 10.4623 28.3874 12.1484 26.3067 12.1484Z" fill="#5AFEAE"/>
<path d="M24.8173 4.00493L23.3285 9.69103V9.70897H24.4944L25.9832 4.02287H24.8173V4.00493ZM6.41371 7.23363C6.23434 7.32332 6.05497 7.35919 5.85766 7.35919C5.4451 7.35919 5.21192 7.28744 5.17604 6.94664V6.9287C5.17604 6.91076 5.17604 6.91076 5.17604 6.89282V5.90628V5.79865V5.0991V4.81211V4.70448V4.04081L4.13569 4.16637C4.83524 4.02287 5.22986 3.48475 5.22986 2.9287V2.58789H4.06394V4.1843L3.99219 4.20224V7.14394C4.02806 7.96906 4.58412 8.4713 5.46304 8.4713C5.78591 8.4713 6.12672 8.39955 6.39578 8.27399L6.41371 7.23363Z" fill="#292929"/>
<path d="M6.5927 3.78841L3.32812 4.29065V5.11576L6.5927 4.61352V3.78841ZM6.5927 5.00814L3.32812 5.51038V6.29962L6.5927 5.79737V5.00814ZM10.2519 5.38482C10.1981 4.47002 9.62409 3.91397 8.69135 3.91397C8.15324 3.91397 7.70481 4.12921 7.39987 4.52383C7.09494 4.91845 6.93351 5.49244 6.93351 6.19199C6.93351 6.89155 7.09494 7.46554 7.39987 7.86015C7.70481 8.25477 8.15324 8.45208 8.69135 8.45208C9.62409 8.45208 10.1981 7.91397 10.2519 6.98123V8.3624H11.4178V4.02159L10.2519 4.20096V5.38482ZM10.3236 6.19199C10.3236 6.99917 9.89315 7.53729 9.22947 7.53729C8.54786 7.53729 8.1353 7.03504 8.1353 6.19199C8.1353 5.34894 8.54786 4.8467 9.22947 4.8467C9.55234 4.8467 9.83934 4.97226 10.0366 5.22338C10.216 5.45657 10.3236 5.79737 10.3236 6.19199ZM14.8079 3.91397C13.8752 3.91397 13.3012 4.45208 13.2474 5.38482V2.74805L12.0815 2.92742V8.3624H13.2474V6.98123C13.3012 7.91397 13.8752 8.45208 14.8079 8.45208C15.9021 8.45208 16.5658 7.60903 16.5658 6.19199C16.5658 4.77495 15.9021 3.91397 14.8079 3.91397ZM14.2878 7.53729C13.6241 7.53729 13.1936 7.01711 13.1936 6.19199C13.1936 5.79737 13.3012 5.45657 13.4806 5.22338C13.6779 4.97226 13.947 4.8467 14.2878 4.8467C14.9694 4.8467 15.3819 5.34894 15.3819 6.19199C15.3819 7.03504 14.9694 7.53729 14.2878 7.53729ZM19.7227 3.91397C18.79 3.91397 18.216 4.45208 18.1622 5.38482V2.74805L16.9963 2.92742V8.3624H18.1622V6.98123C18.216 7.91397 18.79 8.45208 19.7227 8.45208C20.8169 8.45208 21.4806 7.60903 21.4806 6.19199C21.4806 4.77495 20.8169 3.91397 19.7227 3.91397ZM19.2026 7.53729C18.5389 7.53729 18.1084 7.01711 18.1084 6.19199C18.1084 5.79737 18.216 5.45657 18.3954 5.22338C18.5927 4.97226 18.8618 4.8467 19.2026 4.8467C19.8842 4.8467 20.2967 5.34894 20.2967 6.19199C20.2967 7.03504 19.8842 7.53729 19.2026 7.53729ZM21.4806 4.00365H22.7183L23.7227 8.3624H22.6106L21.4806 4.00365ZM26.9335 4.45208V4.11128H26.79V4.03953H27.1667V4.11128H27.0232V4.45208H26.9335ZM27.1846 4.45208V4.02159H27.3281L27.3999 4.2189C27.4178 4.27271 27.4357 4.29065 27.4357 4.30859C27.4357 4.29065 27.4537 4.27271 27.4716 4.2189L27.5434 4.02159H27.6869V4.45208H27.5972V4.11128L27.4716 4.45208H27.3819L27.2743 4.11128V4.45208H27.1846Z" fill="#292929"/>
</svg>
