<svg width="51" height="33" viewBox="0 0 51 33" fill="none" xmlns="http://www.w3.org/2000/svg">
<rect width="50.6981" height="32" transform="translate(0.027832 0.767578)" fill="white"/>
<path fill-rule="evenodd" clip-rule="evenodd" d="M17.9847 22.4502L21.4479 11.0316H24.5378L21.0744 22.4502H17.9847ZM16.6034 11.0347L13.8237 15.8754C13.1164 17.1434 12.7025 17.7838 12.5036 18.5844H12.4612C12.5106 17.5693 12.3689 16.322 12.3557 15.6172L12.0485 11.0347H6.84727L6.79419 11.3419C8.13031 11.3419 8.92275 12.0131 9.14072 13.3863L10.1546 22.4502H13.3558L19.8287 11.0347H16.6034ZM40.6328 22.4502L40.5477 20.7522L36.6898 20.7491L35.9002 22.4502H32.5458L38.6287 11.0532H42.746L43.7759 22.4502H40.6328ZM40.2789 15.7146C40.244 14.8706 40.2157 13.7255 40.2726 13.032H40.2271C40.0392 13.5989 39.2314 15.3013 38.8762 16.1383L37.7266 18.6409H40.4356L40.2789 15.7146ZM27.7817 22.7746C25.6004 22.7746 24.1525 22.0827 23.1191 21.4655L24.5909 19.2179C25.519 19.7368 26.2474 20.3357 27.924 20.3357C28.4627 20.3357 28.9821 20.196 29.2774 19.685C29.7067 18.9428 29.1781 18.5426 27.9714 17.8595L27.3753 17.4719C25.5859 16.2495 24.8117 15.088 25.6541 13.0609C26.1934 11.7643 27.6146 10.7812 29.9605 10.7812C31.5774 10.7812 33.0942 11.481 33.9774 12.1645L32.2854 14.1489C31.4229 13.4516 30.7084 13.0989 29.8905 13.0989C29.2384 13.0989 28.7428 13.3505 28.5716 13.6897C28.2497 14.3273 28.6759 14.762 29.6163 15.3455L30.3249 15.7966C32.4977 17.1669 33.0147 18.6036 32.4707 19.9463C31.5335 22.2589 29.6998 22.7746 27.7817 22.7746ZM44.6959 12.5791H44.5621V11.7643H44.8711C45.0681 11.7643 45.1679 11.8331 45.1679 11.9986C45.1679 12.1463 45.0778 12.2075 44.9556 12.221L45.1839 12.5791H45.0326L44.8221 12.2311H44.6959V12.5791ZM44.8454 12.1164C44.9459 12.1164 45.0344 12.1067 45.0344 11.9886C45.0344 11.8903 44.938 11.8784 44.8579 11.8784H44.6959V12.1164H44.8454ZM44.8416 12.8941C44.4182 12.8941 44.117 12.5772 44.117 12.1579C44.117 11.7153 44.4512 11.422 44.8416 11.422C45.227 11.422 45.5618 11.7153 45.5618 12.1579C45.5618 12.6007 45.227 12.8941 44.8416 12.8941ZM44.8416 11.5498C44.5225 11.5498 44.2747 11.7998 44.2747 12.1579C44.2747 12.4924 44.4911 12.766 44.8416 12.766C45.1563 12.766 45.4041 12.5178 45.4041 12.1579C45.4041 11.7998 45.1563 11.5498 44.8416 11.5498Z" fill="#646464"/>
<path fill-rule="evenodd" clip-rule="evenodd" d="M50.723 25.998H0.118408V32.7688H50.723V25.998Z" fill="#888888"/>
<path fill-rule="evenodd" clip-rule="evenodd" d="M50.7278 0.767578H0.027832V7.53864H50.7278V0.767578ZM49.5691 32.2861H49.4351V31.4713H49.7447C49.942 31.4713 50.0421 31.5401 50.0421 31.7057C50.0421 31.853 49.9518 31.9142 49.8294 31.9277L50.0581 32.2861H49.9065L49.6956 31.9378H49.5691V32.2861ZM49.7192 31.8234C49.8199 31.8234 49.9087 31.8137 49.9087 31.6953C49.9087 31.5973 49.8121 31.5854 49.7318 31.5854H49.5694V31.8234H49.7192ZM49.7155 32.6008C49.2913 32.6008 48.9895 32.2842 48.9895 31.8646C48.9895 31.4223 49.3249 31.129 49.7155 31.129C50.1022 31.129 50.437 31.4223 50.437 31.8646C50.437 32.3074 50.1022 32.6008 49.7155 32.6008ZM49.7155 31.2565C49.3957 31.2565 49.1475 31.5068 49.1475 31.8646C49.1475 32.1994 49.3643 32.4727 49.7155 32.4727C50.0308 32.4727 50.279 32.2248 50.279 31.8646C50.279 31.5068 50.0308 31.2565 49.7155 31.2565Z" fill="#646464"/>
</svg>
